<?xml version="1.0" encoding="utf-8"?>
<!-- Generator: Adobe Illustrator 18.0.0, SVG Export Plug-In . SVG Version: 6.00 Build 0)  -->
<!DOCTYPE svg PUBLIC "-//W3C//DTD SVG 1.1//EN" "http://www.w3.org/Graphics/SVG/1.1/DTD/svg11.dtd">
<svg version="1.1" id="Calque_1" xmlns="http://www.w3.org/2000/svg" xmlns:xlink="http://www.w3.org/1999/xlink" x="0px" y="0px"
	 viewBox="0 0 100 100" enable-background="new 0 0 100 100" xml:space="preserve">
<path fill="#172982" d="M55.5,19.5l3.5-2.1c2.4-1.4,3.1-4.5,1.7-6.9c-1.4-2.4-4.5-3.1-6.9-1.7L31.8,21.9c-1.5,0.9-2.5,2.6-2.4,4.4
	s1,3.4,2.6,4.3l22.4,12.5c0.8,0.4,1.6,0.6,2.4,0.6c1.8,0,3.5-0.9,4.4-2.6c1.3-2.4,0.5-5.5-1.9-6.8l-5.5-3.1
	C66.5,33,76.3,44,76.3,57.2c0,14.4-11.7,26.1-26.1,26.1S24.1,71.6,24.1,57.2c0-3.3-2.7-6-6-6s-6,2.7-6,6c0,21,17.1,38.1,38.1,38.1
	s38.1-17.1,38.1-38.1C88.3,38,74,22,55.5,19.5z"/>
</svg>
