<?xml version="1.0" encoding="utf-8"?>
<!-- Generator: Adobe Illustrator 18.0.0, SVG Export Plug-In . SVG Version: 6.00 Build 0)  -->
<!DOCTYPE svg PUBLIC "-//W3C//DTD SVG 1.1//EN" "http://www.w3.org/Graphics/SVG/1.1/DTD/svg11.dtd">
<svg version="1.1" id="Calque_1" xmlns="http://www.w3.org/2000/svg" xmlns:xlink="http://www.w3.org/1999/xlink" x="0px" y="0px"
	 viewBox="0 0 100 100" enable-background="new 0 0 100 100" xml:space="preserve">
<path fill="#172982" d="M64.4,57.4C64.4,57.4,64.4,57.4,64.4,57.4C79.9,53,94,45,92.4,40c-1.6-4.8-16.5-3.3-31.1,1.7c0,0,0,0,0,0
	c-2.9,0.9-3.7-0.2-3.6-3.4c0,0,0,0,0,0c0.1-15-3-29-8-29c-4.9,0-8.1,14-8,29c0,0,0,0,0,0c0,3.5-0.3,4.8-3.2,3.8c0,0,0,0,0,0
	C23.9,37,8.8,35.5,7.3,40.3c-1.6,4.9,12,12.8,27.2,17.2c0,0,0,0,0,0c2.8,0.8,2.2,1.4,1,3c0,0,0,0,0,0C25.9,73,19.6,87.2,23.7,90.3
	c4.1,3,15.3-7,24.1-19.7v0c1.5-2.1,2.8-2.3,4.2-0.3c0,0,0,0,0,0C60.9,83,72.2,93.1,76.3,90.1c4.3-3.1-2.5-17.9-12.4-30.6
	c0,0,0,0,0,0C63.3,58.8,62.8,57.8,64.4,57.4z"/>
<path fill="none" stroke="#172982" stroke-width="10" stroke-linejoin="round" stroke-miterlimit="10" d="M-1093.4,863.1"/>
<path fill="#172982" d="M274.3,57.2"/>
<path fill="#172982" d="M262.3,57.2"/>
</svg>
