<?xml version="1.0" encoding="utf-8"?>
<!-- Generator: Adobe Illustrator 18.0.0, SVG Export Plug-In . SVG Version: 6.00 Build 0)  -->
<!DOCTYPE svg PUBLIC "-//W3C//DTD SVG 1.1//EN" "http://www.w3.org/Graphics/SVG/1.1/DTD/svg11.dtd">
<svg version="1.1" id="Calque_1" xmlns="http://www.w3.org/2000/svg" xmlns:xlink="http://www.w3.org/1999/xlink" x="0px" y="0px"
	 viewBox="0 0 100 100" enable-background="new 0 0 100 100" xml:space="preserve">
<g>
	<rect x="6.4" y="7.7" fill="#FFFFFF" width="67.6" height="84.7"/>
	<path fill="#172982" d="M75.6,93.8H4.9V6.2h70.6V93.8z M7.9,90.8h64.6V9.2H7.9V90.8z"/>
</g>
<rect x="15.5" y="17.9" fill="#172982" width="49" height="3.5"/>
<rect x="15.5" y="27.2" fill="#172982" width="49" height="3.5"/>
<rect x="15.5" y="36.5" fill="#172982" width="49" height="3.5"/>
<rect x="15.5" y="45.8" fill="#172982" width="48.8" height="3.5"/>
<rect x="15.5" y="56.5" fill="#172982" width="48.8" height="3.5"/>
<rect x="15.5" y="67.1" fill="#172982" width="22.4" height="3.5"/>
<g>
	<path fill="#EA81A0" d="M94.4,18.1L83,29.5c-0.9,0.9-2.2,0.9-3.1,0l-5-5c-0.9-0.9-0.9-2.2,0-3.1L86.4,10c0.9-0.9,2.2-0.9,3.1,0l5,5
		C95.3,15.8,95.3,17.2,94.4,18.1z"/>
	<g>
		<g>
			<path fill="#FFFFFF" d="M34.2,70.3c0,0,0.1,0.1,0.1,0.1C34.2,70.3,34.2,70.3,34.2,70.3C34.1,70.3,34.2,70.3,34.2,70.3z"/>
			<path fill="#172982" d="M35.4,65.4L34,68.8c0.1-0.1,0.1-0.2,0.2-0.3c0.5-0.5,1.3-0.5,1.7,0c0.5,0.5,0.5,1.3,0,1.7
				c-0.1,0.1-0.2,0.1-0.2,0.2l3.2-1.3c-0.2-0.8-0.6-1.7-1.4-2.4C36.9,66,36.1,65.6,35.4,65.4z"/>
			<path fill="#172982" d="M35.3,70.6c0.1,0,0.3-0.1,0.4-0.2c0.1,0,0.2-0.1,0.2-0.2c0.5-0.5,0.5-1.3,0-1.7c-0.5-0.5-1.3-0.5-1.7,0
				c-0.1,0.1-0.1,0.2-0.2,0.3l-0.1,0.3c-0.1,0.4,0,0.8,0.3,1.1c0.1,0,0.1,0.1,0.2,0.1C34.6,70.6,34.9,70.7,35.3,70.6z"/>
		</g>
		<g>
			<polygon fill="#B0B2B3" points="38.6,57.4 38.6,57.4 38.6,57.4 			"/>
			<path fill="#B0B2B3" d="M43.6,60.9c-1.7-1.7-5-3.4-5-3.4l-3.2,7.9c0.7,0.2,1.4,0.7,2.1,1.4c0.8,0.8,1.3,1.5,1.5,2.3l4.4-1.8
				l3.6-1.5l0.1-0.1C46.4,64.4,45.2,62.5,43.6,60.9z"/>
			<path fill="#172982" d="M43.3,61.1c1.7,1.7,2.9,3.4,3.7,4.8l44.2-44.2l-8.4-8.4L38.6,57.4l0,0C40,58.2,41.7,59.4,43.3,61.1z"/>
		</g>
	</g>
	
		<rect x="86.3" y="11" transform="matrix(0.7071 -0.7071 0.7071 0.7071 13.2611 66.6405)" fill="#B0B2B3" width="1.6" height="12.7"/>
</g>
</svg>
