<?xml version="1.0" encoding="utf-8"?>
<!-- Generator: Adobe Illustrator 18.0.0, SVG Export Plug-In . SVG Version: 6.00 Build 0)  -->
<!DOCTYPE svg PUBLIC "-//W3C//DTD SVG 1.1//EN" "http://www.w3.org/Graphics/SVG/1.1/DTD/svg11.dtd">
<svg version="1.1" id="Calque_1" xmlns="http://www.w3.org/2000/svg" xmlns:xlink="http://www.w3.org/1999/xlink" x="0px" y="0px"
	 viewBox="0 0 100 100" enable-background="new 0 0 100 100" xml:space="preserve">
<g>
	<path fill="#B0B2B3" d="M82.4,19.2L34.7,42.9c0.6,1.2,1.3,2.4,2,3.5L84,22.9C83.5,21.6,83,20.4,82.4,19.2z"/>
	<path fill="#B0B2B3" d="M58.7,58.1c9.8,0,18.8-5.4,23.5-14c0.4-0.7,0.7-1.4,1-2.1L52.5,57.3C54.5,57.8,56.6,58.1,58.7,58.1z"/>
	<path fill="#B0B2B3" d="M71.4,8c-3.9-2.1-8.2-3.2-12.6-3.2c-9.8,0-18.8,5.4-23.5,14c-2.7,5.1-3.7,10.8-2.9,16.4l45.2-22.6
		C75.8,10.9,73.7,9.3,71.4,8z"/>
	<path fill="#FFFFFF" d="M77.6,12.7L32.4,35.2c0.2,1.3,0.5,2.6,0.9,3.9c0.4,1.3,0.9,2.6,1.5,3.8l47.6-23.8
		C81.1,16.8,79.6,14.6,77.6,12.7z"/>
	<path fill="#FFFFFF" d="M84,22.9L36.8,46.5c2.4,3.5,5.6,6.4,9.4,8.4c2,1.1,4.1,1.9,6.3,2.4L83.2,42C85.9,35.7,86,29,84,22.9z"/>
	<path fill="#172982" d="M73.2,4.6c-4.4-2.4-9.4-3.6-14.4-3.6C47.5,0.9,37.2,7.1,31.9,17c-3.9,7.2-4.7,15.4-2.3,23.2
		c2.2,7.2,6.9,13.3,13.3,17.2l-2,3.8c-2.4-0.8-5,0.2-6.2,2.5L20.1,90.6c-1.4,2.5-0.4,5.7,2.1,7.1l1.5,0.8c2.5,1.4,5.7,0.4,7.1-2.1
		l14.4-26.8c1.1-2.1,0.6-4.7-1-6.2l2.1-3.9C50.2,61,54.5,62,58.7,62c11.3,0,21.6-6.2,26.9-16.1C93.6,31.1,88,12.5,73.2,4.6z
		 M82.2,44c-4.6,8.7-13.6,14-23.5,14c-2.1,0-4.2-0.3-6.3-0.8c-2.2-0.5-4.3-1.3-6.3-2.4c-3.8-2.1-7-4.9-9.4-8.4
		c-0.8-1.1-1.4-2.3-2-3.5c-0.6-1.2-1.1-2.5-1.5-3.8c-0.4-1.3-0.7-2.6-0.9-3.9c-0.8-5.6,0.2-11.3,2.9-16.4c4.6-8.7,13.6-14,23.5-14
		c4.4,0,8.7,1.1,12.6,3.2c2.4,1.3,4.5,2.9,6.3,4.7c1.9,1.9,3.5,4.1,4.7,6.5c0.6,1.2,1.2,2.5,1.6,3.8c2,6.1,1.9,12.8-0.7,19
		C82.9,42.7,82.6,43.4,82.2,44z"/>
</g>
<path fill="none" stroke="#172982" stroke-width="10" stroke-linejoin="round" stroke-miterlimit="10" d="M-495.4,863.1"/>
<path fill="#172982" d="M872.3,57.2"/>
<path fill="#172982" d="M860.3,57.2"/>
</svg>
