<?xml version="1.0" encoding="utf-8"?>
<!-- Generator: Adobe Illustrator 18.0.0, SVG Export Plug-In . SVG Version: 6.00 Build 0)  -->
<!DOCTYPE svg PUBLIC "-//W3C//DTD SVG 1.1//EN" "http://www.w3.org/Graphics/SVG/1.1/DTD/svg11.dtd">
<svg version="1.1" id="Calque_1" xmlns="http://www.w3.org/2000/svg" xmlns:xlink="http://www.w3.org/1999/xlink" x="0px" y="0px"
	 viewBox="0 0 100 100" enable-background="new 0 0 100 100" xml:space="preserve">
<path fill="#172982" d="M58.2,78.6l3.9-12l6.6-3.8l-4.7-14.3l-8.6,0.9l-10.2-7.4l-1.6-7.5l-15,0l-2,9.6l-8.8,6.4L9,49.7L4.4,64
	l9.3,5.4l0.2-0.5l3,9.1l-4.2,9.4l12.2,8.8l7.2-6.5l11.1,0.1l6.4,5.8l12.1-8.9L58.2,78.6z M41,76.8l-6.9-0.1l-5.6-4.3l-2.2-6.8l2-6.8
	l5.7-4.2l7.2,0l5.8,4.2l2.2,6.8l-2.2,6.8L41,76.8z"/>
<path fill="#172982" d="M83.8,42.5l5.9-7.8l5.7-1.1l0.2-11.6l-6.5-1.5l-5.6-7.9l0.7-5.9L73.3,3l-3.9,6.5l-8,2.5l-6.2-2.9l-6.9,9.3
	l5.5,6.3l0.3-0.3l-0.1,7.4l-5.4,5.8l6.7,9.5L62,44l8.1,2.8l3.2,5.8l11.1-3.4L83.8,42.5z M71.7,36.9l-5-1.8l-3-4.5l0.1-5.5l3.1-4.4
	l5.2-1.6l5.2,1.8l3.2,4.5l-0.1,5.5L77,35.3L71.7,36.9z"/>
<path fill="none" stroke="#172982" stroke-width="10" stroke-linejoin="round" stroke-miterlimit="10" d="M-137.4,863.1"/>
</svg>
