<?xml version="1.0" encoding="utf-8"?>
<!-- Generator: Adobe Illustrator 18.0.0, SVG Export Plug-In . SVG Version: 6.00 Build 0)  -->
<!DOCTYPE svg PUBLIC "-//W3C//DTD SVG 1.1//EN" "http://www.w3.org/Graphics/SVG/1.1/DTD/svg11.dtd">
<svg version="1.1" id="Calque_1" xmlns="http://www.w3.org/2000/svg" xmlns:xlink="http://www.w3.org/1999/xlink" x="0px" y="0px"
	 viewBox="0 0 100 100" enable-background="new 0 0 100 100" xml:space="preserve">
<g>
	<path fill="#EA81A0" d="M4.6,43.2h20.1c1.2,0,2.2,1,2.2,2.2v9.2c0,1.2-1,2.2-2.2,2.2H4.6c-1.2,0-2.2-1-2.2-2.2v-9.2
		C2.4,44.1,3.4,43.2,4.6,43.2z"/>
	<g>
		<g>
			<path fill="#FFFFFF" d="M99.8,49.9c0-0.1,0-0.1,0-0.2C99.8,49.8,99.8,49.9,99.8,49.9C99.8,50,99.8,50,99.8,49.9z"/>
			<path fill="#172982" d="M99.8,49.8c-0.1-0.4-0.3-0.8-0.7-1c-0.1-0.1-0.3-0.2-0.5-0.2l-3.8-1.6c-0.6,0.8-0.9,2-0.9,3.2
				c0,1.1,0.3,2.1,0.7,2.9l4.1-1.7l0.3-0.1c0.4-0.2,0.7-0.7,0.7-1.2C99.8,49.9,99.8,49.8,99.8,49.8z"/>
		</g>
		<g>
			<path fill="#B0B2B3" d="M94.8,46.9l-5.3-2.2l-4.3-1.9L85,43c-0.6,2-0.9,4.2-0.9,7c0,2.8,0.2,5.5,1.1,7c0,0,0,0,0,0l4.2-1.8
				l5.2-2.2c-0.4-0.8-0.6-1.8-0.6-2.9C94,48.9,94.3,47.7,94.8,46.9z"/>
			<polygon fill="#B0B2B3" points="85.2,57.1 85.2,57.1 85.2,57.1 			"/>
			<path fill="#172982" d="M84.3,49.9c0-2.9,1-7.2,0.9-7.1l-74.5,0v14.2h74.5v0C84.7,55.3,84.3,52.8,84.3,49.9z"/>
		</g>
	</g>
	<rect x="9.6" y="42.4" fill="#B0B2B3" width="1.9" height="15.1"/>
	<path fill="#EA81A0" d="M42.3,96.5V76.4c0-1.2,1-2.2,2.2-2.2h9.2c1.2,0,2.2,1,2.2,2.2v20.1c0,1.2-1,2.2-2.2,2.2h-9.2
		C43.2,98.7,42.3,97.7,42.3,96.5z"/>
	<g>
		<g>
			<path fill="#FFFFFF" d="M49,1.3c-0.1,0-0.1,0-0.2,0C48.9,1.3,49,1.3,49,1.3C49.1,1.3,49.1,1.3,49,1.3z"/>
			<path fill="#172982" d="M50.4,2.4L50.3,2c-0.2-0.4-0.7-0.7-1.2-0.7c-0.1,0-0.2,0-0.3,0c-0.4,0.1-0.8,0.3-1,0.7
				c-0.1,0.1-0.2,0.3-0.2,0.5l-1.7,4c0.8,0.6,2,0.7,3.3,0.7c1.1,0,2.1-0.3,2.9-0.7L50.4,2.4z"/>
		</g>
		<g>
			<polygon fill="#B0B2B3" points="56.1,15.8 56.1,15.8 56.1,15.8 			"/>
			<path fill="#172982" d="M49,16.8c-2.8,0-5.3-0.4-7.1-0.9v74.5h14.2V15.8h0C54.4,16.4,51.9,16.8,49,16.8z"/>
			<path fill="#B0B2B3" d="M56.1,16L56.1,16C56.1,15.9,56.1,16,56.1,16L56.1,16l-1.8-4.3l-2.2-5.2c-0.8,0.4-1.8,0.7-2.9,0.7
				c-1.3,0-2.4-0.3-3.2-0.8l-2.2,5.4L42,16h0v-0.2c0,0,0,0,0,0L41.9,16h0.6c1.7,0.5,4,0.8,6.5,0.8c2.5,0,4.8-0.3,6.5-0.8H56.1
				C56.1,16,56.1,16,56.1,16z"/>
		</g>
	</g>
	<rect x="41.5" y="89.6" fill="#B0B2B3" width="15.1" height="1.9"/>
</g>
</svg>
