<svg xmlns="http://www.w3.org/2000/svg">
<defs>
<font id="FAFERSTechnicalFont" horiz-adv-x="872" >
  <font-face 
    font-family="FAFERS Technical Font"
    font-weight="400"
    font-stretch="normal"
    units-per-em="2048"
    panose-1="2 0 5 0 0 0 0 0 0 0"
    ascent="1638"
    descent="-410"
    x-height="732"
    cap-height="1192"
    bbox="26 -471 2098 1716"
    underline-thickness="150"
    underline-position="-142"
    unicode-range="U+0020-U+F002"
  />
<missing-glyph horiz-adv-x="1532" 
d="M1410 1215l0.00292969 -4l-128 -96h-28c-74 0 -155.333 -14.667 -244 -44v-4h216v-8l-128 -64h-212c-26.667 0 -61.334 -34.667 -104.001 -104c-18.667 -44 -28 -96 -28 -156v-64l-8 -8h-16c-151.333 0 -267.333 -45.333 -348 -136l8 -20c-6.66699 -16 -16 -24 -28 -24
c-16.667 5.33301 -26 12 -28 20v16c51.333 115.333 116.666 223.333 195.999 324c229.333 248 522.666 372 879.999 372zM354.003 531l0.00292969 -3.99902h4c78.667 176 154.667 277.333 228 304l24 4h16c40 -10.667 60 -29.334 60 -56.001v-16
c0 -25.333 -18.667 -42.666 -56 -51.999h-20c-14 0 -22 4 -24 12v12l8 8h4c0 -13.333 2.66699 -20 8 -20h20c32 6.66699 48 22.667 48 48c0 29.333 -20 46.666 -60 51.999c-72 0 -152 -94.667 -240 -284c107.333 96 220.666 144 339.999 144h16v16c0 154 48 256.667 144 308
h216c12 0 42.667 17.333 92 52h-220v8c101.333 40 204 60 308 60l100 72h-16c-304.667 0 -575.334 -120 -812.001 -360c-90.667 -112 -153.334 -214.667 -188.001 -308zM346.006 715.001h8v-4l12 -112l-16 -40h-8l4 88v68zM226.006 655.001l112.001 -119.999l-12 -32
c0 -12.667 12 -20.667 36 -24c21.333 0 32 9.33301 32 28v8l-4 20l140 64h4l-124 -100h88v-8h-4l-92 -12l64 -44h-4l-84 28l8 -28l-28 24l-8 -24h-8l-4 32l-56 -32h-8l28 32h-4c-90.667 -46.667 -136 -94.667 -136 -144v-12c0 -92.667 136 -168.667 408 -228
c118 -18.667 234 -28 348 -28c166.667 0 326.667 20 480 60c0 -16.667 -106.667 -43.334 -320 -80.001c-74 -8 -142 -12 -204 -12h-84c-258.667 0 -469.334 48 -632.001 144c-53.333 42 -80 76.667 -80 104v32c0 46 53.333 95.333 160 148l64 24v4l-132 36v8l136 -8l-80 132

<glyph glyph-name=".notdef" horiz-adv-x="1532" 
d="M1410 1215l0.00292969 -4l-128 -96h-28c-74 0 -155.333 -14.667 -244 -44v-4h216v-8l-128 -64h-212c-26.667 0 -61.334 -34.667 -104.001 -104c-18.667 -44 -28 -96 -28 -156v-64l-8 -8h-16c-151.333 0 -267.333 -45.333 -348 -136l8 -20c-6.66699 -16 -16 -24 -28 -24
c-16.667 5.33301 -26 12 -28 20v16c51.333 115.333 116.666 223.333 195.999 324c229.333 248 522.666 372 879.999 372zM354.003 531l0.00292969 -3.99902h4c78.667 176 154.667 277.333 228 304l24 4h16c40 -10.667 60 -29.334 60 -56.001v-16
c0 -25.333 -18.667 -42.666 -56 -51.999h-20c-14 0 -22 4 -24 12v12l8 8h4c0 -13.333 2.66699 -20 8 -20h20c32 6.66699 48 22.667 48 48c0 29.333 -20 46.666 -60 51.999c-72 0 -152 -94.667 -240 -284c107.333 96 220.666 144 339.999 144h16v16c0 154 48 256.667 144 308
h216c12 0 42.667 17.333 92 52h-220v8c101.333 40 204 60 308 60l100 72h-16c-304.667 0 -575.334 -120 -812.001 -360c-90.667 -112 -153.334 -214.667 -188.001 -308zM346.006 715.001h8v-4l12 -112l-16 -40h-8l4 88v68zM226.006 655.001l112.001 -119.999l-12 -32
c0 -12.667 12 -20.667 36 -24c21.333 0 32 9.33301 32 28v8l-4 20l140 64h4l-124 -100h88v-8h-4l-92 -12l64 -44h-4l-84 28l8 -28l-28 24l-8 -24h-8l-4 32l-56 -32h-8l28 32h-4c-90.667 -46.667 -136 -94.667 -136 -144v-12c0 -92.667 136 -168.667 408 -228
c118 -18.667 234 -28 348 -28c166.667 0 326.667 20 480 60c0 -16.667 -106.667 -43.334 -320 -80.001c-74 -8 -142 -12 -204 -12h-84c-258.667 0 -469.334 48 -632.001 144c-53.333 42 -80 76.667 -80 104v32c0 46 53.333 95.333 160 148l64 24v4l-132 36v8l136 -8l-80 132
v8zM514.007 503.002h8v-8h-8v8zM1362.01 375.002c14 0 24.6689 -6.66602 32.002 -19.999v-16l-12 -12h-12l-16 12h-20l-84 -8v-8c0 -4 37.333 -17.333 112 -40c37.333 -19.333 56 -40.666 56 -63.999l-20 -16h-48l-100 -4c0 13.333 -66.667 26.666 -200 39.999v-20l-16 -16
h-8c-10 0 -15.333 10.667 -16 32l-208 -24c-16 36.667 -24 67.334 -24 92.001v20l-16 16l-140 -8v-20h52c58.667 0 88 -5.33301 88 -16c-4 -10.667 -13.333 -16 -28 -16h-20l-88 -4l4 -48v-8l-12 -12c-18.667 18 -28 39.333 -28 64h-4l-12 -12l20 -24v-8l-12 -12h-8l-48 44
h-84l-36 -44h-4c-10.667 5.33301 -16 12 -16 20l8 24c-5.33301 0 -8 8 -8 24h-28l-80 -4l4 -60l-12 -8c-10.667 4.66699 -22.667 28.667 -36 72l-4 4v4l4 28l-24 28v4c0 13.333 30.667 20 92 20h116l16 -16c0 -8.66699 -53.333 -15.334 -160 -20.001v-8h-4l4 -12h52
c58.667 0 88 -6.66699 88 -20h4c24 25.333 36 48 36 68l36 8c21.333 -50.667 50.666 -76 87.999 -76l4 20v12c-11.333 0 -19.333 5.33301 -24 16v4c0 13.333 34.667 20 104 20h96l20 -4l8 8h12l12 -8h76c30.667 0 48 -6.66699 52 -20c-3.33301 -10.667 -15.333 -16 -36 -16
h-88v-16h92c24 -5.33301 36 -12 36 -20l-12 -12h-24l-88 -4v-24c47.333 8 108.666 12 183.999 12v4l-4 80c4 13.333 13.333 20 28 20h52c59.333 0 95.333 -18.667 108 -56c0 -7.33301 -16 -22 -48 -44l128 -32l88 4v4l-132 48c-10.667 11.333 -16 24.666 -16 39.999v4
c14.667 26.667 66.667 40 156 40zM1038.01 331.003l4 -48h16c24 0 53.333 9.33301 88 28v8c-31.333 8 -67.333 12 -108 12zM470.009 303.003v-4h20l-12 12z" />
    <glyph glyph-name="space" unicode=" " horiz-adv-x="649" 
 />
    <glyph glyph-name="space" unicode="&#xa0;" horiz-adv-x="649" 
 />
    <glyph glyph-name="exclam" unicode="!" horiz-adv-x="305" 
d="M214 1142v-899h-126v899h126zM232 159v-144h-162v144h162z" />
    <glyph glyph-name="quotedbl" unicode="&#x22;" horiz-adv-x="574" 
d="M146 1108l-30 -0.000976562l-62 359c-2.66699 15.333 -4 26.333 -4 33c0 24.667 6.83301 43.667 20.5 57s33.5 20 59.5 20s46.167 -6.5 60.5 -19.5s21.5 -31.833 21.5 -56.5c0 -5.33301 -1.33301 -16.666 -4 -33.999zM458 1108l-30 -0.000976562l-62 359
c-2.66699 15.333 -4 26.333 -4 33c0 24.667 6.83301 43.667 20.5 57s33.5 20 59.5 20s46.167 -6.5 60.5 -19.5s21.5 -31.833 21.5 -56.5c0 -5.33301 -1.33301 -16.666 -4 -33.999z" />
    <glyph glyph-name="numbersign" unicode="#" horiz-adv-x="1202" 
d="M529 859l-85 -290h242l86 290h-243zM606 1434h93l-141 -477h242l142 477h92l-141 -477h259l-29 -97h-259l-83 -290h279l-30 -98h-280l-140 -472h-92l139 472h-240l-142 -472h-92l140 472h-273l30 98h271l86 290h-295l29 97h295z" />
    <glyph glyph-name="dollar" unicode="$" horiz-adv-x="1336" 
d="M463 664v419.998h-37c-109.333 0 -180 -24 -212 -72c-37.333 -43.333 -56 -88.666 -56 -135.999c0 -101.333 53.333 -170.666 160 -207.999l40 -4h105zM812 111.998h101.999c130.667 0 213.334 49.333 248.001 148l12 68c0 109.333 -57.333 181.333 -172 216l-28 4
l-162 1v-437zM462.999 550.998l-125.001 0.998047c-76 0 -153.333 44 -232 132c-37.333 60.667 -56 119.334 -56 176.001v32c0 106.667 60 197.334 180 272.001c51.333 18.667 91.333 28 120 28h113v203h121v-203h107v203h121v-203h426l8 -8v-92l-8 -8h-426v-420h150
c124.667 0 222 -62.667 292 -188c21.333 -40.667 32 -84.667 32 -132v-40c0 -96.667 -56 -184.667 -168 -264c-57.333 -26.667 -102.666 -40 -135.999 -40h-170v-159h-121v159h-107v-159h-121v159h-405l-8 8v96l8 8h405v439zM690.998 549.996h-107v-438h107v438z
M583.998 663.996h107v420h-107v-420z" />
    <glyph glyph-name="percent" unicode="%" horiz-adv-x="1124" 
d="M50 -29l940 1461h84l-938 -1461h-86zM200 1385h158.999c44.667 0 76.667 -26.667 96 -80l1 -18v-355c0 -44.667 -26.333 -76.667 -79 -96l-18 -1h-159c-43.333 0 -74.666 26.333 -93.999 79l-2 18v355c0 44.667 26.333 76.667 79 96zM215.999 1320
c-35.333 -14.667 -53.001 -39.334 -53.001 -74.001v-273l2 -14c12.667 -40.667 33.334 -61 62.001 -61h105l12 1c35.333 14.667 53 39.334 53 74.001v273l-1 14c-12.667 40.667 -34 61 -64 61h-105zM791.998 579h158.999c44.667 0 76.667 -26.667 96 -80l1 -18v-355
c0 -44.667 -26.333 -76.667 -79 -96l-18 -1h-159c-43.333 0 -74.666 26.333 -93.999 79l-2 18v355c0 44.667 26.333 76.667 79 96zM807.997 514c-35.333 -14.667 -53.001 -39.334 -53.001 -74.001v-273l2 -14c12.667 -40.667 33.334 -61 62.001 -61h105l12 1
c35.333 14.667 53 39.334 53 74.001v273l-1 14c-12.667 40.667 -34 61 -64 61h-105z" />
    <glyph glyph-name="ampersand" unicode="&#x26;" horiz-adv-x="1331" 
d="M684 1192l55.999 0.000976562c88 0 168 -44 240 -132c40 -60 60 -116 60 -168v-40c0 -110 -61.333 -200.667 -184 -272c-44.667 -18.667 -84.667 -28 -120 -28c234.667 -205.333 354.667 -308 360 -308c8 17.333 12 38.666 12 63.999v12l8 8h100c5.33301 0 8 -4 8 -12
c0 -51.333 -13.333 -102 -40 -152l84 -72l-80 -76l-76 60c-69.333 -50.667 -134.666 -76 -195.999 -76h-544c-120 -0 -217.333 69.333 -292 208c-13.333 47.333 -20 79.333 -20 96v40c0 140 78.667 242.667 236 308c34 8 66 12 96 12h48c-53.333 64 -80 134.667 -80 212
c0 124.667 62.667 220.667 188 288c38 18.667 83.333 28 136 28zM471.999 864.001c0 -66.667 44.001 -133.333 132.001 -200h128c84 0 145.333 45.333 184 136c5.33301 7.33301 10.666 31.333 15.999 72c0 92 -49.333 158.667 -148 200l-68 12
c-113.333 0 -189.333 -42.667 -228 -128c-10.667 -42 -16 -72.667 -16 -92zM524 548.002h-144.001c-98.667 0 -166.667 -58.667 -204 -176l-4 -44c0 -93.333 50.667 -161.333 152 -204c26 -8 60.667 -12 104 -12h432c80.667 0 135.334 14.667 164.001 44l-460 396z" />
    <glyph glyph-name="quotesingle" unicode="'" horiz-adv-x="262" 
d="M146 1108l-30 -0.000976562l-62 359c-2.66699 15.333 -4 26.333 -4 33c0 24.667 6.83301 43.667 20.5 57s33.5 20 59.5 20s46.167 -6.5 60.5 -19.5s21.5 -31.833 21.5 -56.5c0 -5.33301 -1.33301 -16.666 -4 -33.999z" />
    <glyph glyph-name="parenleft" unicode="(" horiz-adv-x="584" 
d="M405 -431c-99.333 125.333 -183.333 272 -252 440s-103 342 -103 522c0 158.667 25.667 310.667 77 456c60 168.667 152.667 336.667 278 504h129c-80.667 -138.667 -134 -237.667 -160 -297c-40.667 -92 -72.667 -188 -96 -288c-28.667 -124.667 -43 -250 -43 -376
c0 -320.667 99.667 -641 299 -961h-129z" />
    <glyph glyph-name="parenright" unicode=")" horiz-adv-x="584" 
d="M179 -431l-128.999 0.000976562c199.333 320 299 640.333 299 961c0 125.333 -14.333 249.666 -43 372.999c-22.667 100 -54.334 196 -95.001 288c-26 60 -79.667 160 -161 300h129c125.333 -167.333 218 -335.333 278 -504c51.333 -145.333 77 -297.333 77 -456
c0 -180 -34.5 -354 -103.5 -522s-152.833 -314.667 -251.5 -440z" />
    <glyph glyph-name="asterisk" unicode="*" horiz-adv-x="687" 
d="M394 1106v-184h-96v184l-121 -120l-67 67l120 121h-170v95h171l-130 130v1l67 67l130 -130v184h96v-184l120 120h1l67 -67l-122 -121h172v-95h-171l130 -131l-67 -67z" />
    <glyph glyph-name="plus" unicode="+" horiz-adv-x="940" 
d="M400 647h-350v140h350v369l1 1h139v-370h349l1 -1v-139h-350v-370h-140v370z" />
    <glyph glyph-name="comma" unicode="," horiz-adv-x="352" 
d="M205 135l124 -90c8.66699 -21.333 -66.333 -118 -225 -290l-78 70z" />
    <glyph glyph-name="hyphen" unicode="-" horiz-adv-x="525" 
d="M475 611v-121h-425v121h425z" />
    <glyph glyph-name="hyphen" unicode="&#xad;" horiz-adv-x="525" 
d="M475 611v-121h-425v121h425z" />
    <glyph glyph-name="period" unicode="." horiz-adv-x="350" 
d="M247 182v-157h-152v157h152z" />
    <glyph glyph-name="slash" unicode="/" horiz-adv-x="721" 
d="M130 -50h-80l541 1484h80z" />
    <glyph glyph-name="zero" unicode="0" horiz-adv-x="864" 
d="M258 1192h344.001c97.333 0 166.666 -57.333 207.999 -172l4 -40v-768c0 -97.333 -57.333 -166.666 -172 -207.999l-40 -4h-344c-93.333 0 -161.333 57.333 -204 172l-4 40v768c0 97.333 57.333 166.666 172 207.999zM158.001 940l-0.000976562 -708h4l488 836h-4
c-19.333 10.667 -40.666 16 -63.999 16h-300c-82.667 0 -124 -48 -124 -144zM702 936l-480 -816l60 -12h300c82.667 0 124 48 124 144v684h-4z" />
    <glyph glyph-name="one" unicode="1" horiz-adv-x="304" 
d="M58 1192h188l8 -8v-1176l-8 -8h-92l-8 8v1076h-88l-8 8v92z" />
    <glyph glyph-name="two" unicode="2" horiz-adv-x="868" 
d="M298 1192h131.997c172 0 293.333 -78.667 364 -236c16 -40 24 -80 24 -120v-20c0 -124.667 -60 -228.667 -180 -312c-269.333 -234.667 -422.666 -365.334 -459.999 -392.001v-4h632l8 -8v-92l-8 -8h-752l-8 8v132c18 20.667 215.333 191.334 592 512.001
c42.667 50 64 102 64 156v28c0 102.667 -57.333 178.667 -172 228c-37.333 10.667 -78.666 16 -123.999 16h-132c-80 -9.33301 -120 -49.333 -120 -120l-4 -4h-96l-8 8v12c0 92 52 160 156 204c26.667 8 57.334 12 92.001 12z" />
    <glyph glyph-name="three" unicode="3" horiz-adv-x="864" 
d="M262 1192l343.999 0.00195312c82 0 146 -46.667 192 -140c10.667 -22 16 -44.667 16 -68v-196c0 -56.667 -25.333 -110 -76 -160c50.667 -50.667 76 -101.334 76 -152.001v-268c0 -81.333 -46.667 -145.333 -140 -192c-22 -10.667 -44.667 -16 -68 -16h-348
c-81.333 0 -145.333 46.667 -192 140c-10.667 22 -16 44.667 -16 68v16l8 8h92c5.33301 -0.666992 13.333 -23.334 24 -68.001c27.333 -37.333 66 -56 116 -56h284c88 0 132 50.667 132 152v164c0 98.667 -38.667 148 -116 148h-388l-8 8v96l8 8h384c80 0 120 48 120 144
v104c0 101.333 -44 152 -132 152h-284c-60 0 -101.333 -25.333 -124 -76c-3.33301 -32 -8.66602 -48 -15.999 -48h-92l-8 8v16c0 91.333 56 159.333 168 204z" />
    <glyph glyph-name="four" unicode="4" horiz-adv-x="864" 
d="M198 1192h100l8 -8l-140 -528h488v528l8 8h92l8 -8v-528h44l8 -8v-96l-8 -8h-44v-536l-8 -8h-92l-8 8v536h-596l-8 8v96c92.667 362.667 142 544 148 544z" />
    <glyph glyph-name="five" unicode="5" horiz-adv-x="864" 
d="M58 1192l748 -0.000976562l8 -8v-92l-8 -8h-648v-312h420c114.667 0 192 -57.333 232 -172l4 -36v-352c0 -97.333 -57.333 -166.666 -172 -207.999l-36 -4h-344c-97.333 -0 -166.666 57.333 -207.999 172l-4 40v12l8 8h92c4.66699 0 12.667 -22.667 24 -68
c27.333 -37.333 63.333 -56 108 -56h300c82.667 0 124 48 124 144v268c0 68.667 -24 112.667 -72 132c-10.667 5.33301 -25.334 8 -44.001 8h-532l-8 8v516z" />
    <glyph glyph-name="six" unicode="6" horiz-adv-x="864" 
d="M262 1192h344c93.333 0 161.333 -57.333 204 -172l4 -40v-12l-8 -8h-92c-4 0 -12 22.667 -24 68c-27.333 37.333 -63.333 56 -108 56h-300c-82.667 0 -124 -48 -124 -144v-200c35.333 21.333 80.666 32 135.999 32h284c116 0 193.333 -57.333 232 -172l4 -36v-352
c0 -97.333 -57.333 -166.666 -172 -207.999l-36 -4h-344c-97.333 0 -166.666 57.333 -207.999 172l-4 40v768c0 97.333 57.333 166.666 172 207.999zM158 252c0 -96 41.334 -144 124.001 -144h300c82.667 0 124 48 124 144v268c0 62 -18.667 103.333 -56 124
c-17.333 10.667 -37.333 16 -60 16h-316c-60.667 0 -99.334 -34.667 -116.001 -104v-304z" />
    <glyph glyph-name="seven" unicode="7" horiz-adv-x="848" 
d="M58 1192h732l8 -8v-92l-264 -472h60l8 -8v-92l-8 -8h-120c-6 -3.33301 -106 -174 -300 -512h-116l-8 8l292 504h-88l-8 8v92l8 8h148l268 460v4h-612l-8 8v92z" />
    <glyph glyph-name="eight" unicode="8" horiz-adv-x="868" 
d="M262 1192h348c82 0 146 -46.667 192 -140c10.667 -22 16 -44.667 16 -68v-164c0 -52 -25.333 -104 -76 -156c50.667 -48 76 -98.667 76 -152v-304c0 -81.333 -46.667 -145.333 -140 -192c-22 -10.667 -44.667 -16 -68 -16h-352c-81.333 0 -145.333 46.667 -192 140
c-10.667 22 -16 44.667 -16 68v304c0 50 25.333 102 76 156c-50.667 46 -76 96.667 -76 152v164c0 91.333 56 159.333 168 204zM158 932v-60c0 -101.333 44 -152 132 -152h288c88 0 132 50.667 132 152v60c0 65.333 -16 108 -48 128c-18 16 -50 24 -96 24h-264
c-68 0 -112 -22.667 -132 -68c-8 -20 -12 -48 -12 -84zM158 260c0 -74 24 -122.001 72 -144.001l72 -8h264c68 0 112 22.667 132 68c8 20 12 48 12 84v196c0 82 -26.667 131.333 -80 148l-24 4h-344c-69.333 -11.333 -104 -56.666 -104 -135.999v-212z" />
    <glyph glyph-name="nine" unicode="9" horiz-adv-x="864" 
d="M258 1192h344c97.333 0 166.666 -57.333 207.999 -172l4 -40v-768c0 -97.333 -57.333 -166.666 -172 -207.999l-40 -4h-344c-93.333 0 -161.333 57.333 -204 172l-4 40v12l8 8h92c4.66699 0 12.667 -22.667 24 -68c27.333 -37.333 63.333 -56 108 -56h300
c82.667 0 124 48 124 144v200c-35.333 -21.333 -80.666 -32 -135.999 -32h-284c-114.667 0 -192 57.333 -232 172l-4 36v352c0 97.333 57.333 166.666 172 207.999zM158 940l-0.000976562 -268c0 -62 18.667 -103.333 56 -124c17.333 -10.667 37.333 -16 60 -16h316
c60.667 0 99.334 34.667 116.001 104v316c0 58.667 -22.667 98.667 -68 120c-17.333 8 -36 12 -56 12h-300c-82.667 0 -124 -48 -124 -144z" />
    <glyph glyph-name="colon" unicode=":" horiz-adv-x="350" 
d="M272 925v-197h-190v197h190zM272 251v-197h-190v197h190z" />
    <glyph glyph-name="semicolon" unicode=";" horiz-adv-x="360" 
d="M199 91l95 -69c6.66699 -16.667 -51 -91 -173 -223l-60 54zM280 924v-197h-190v197h190z" />
    <glyph glyph-name="semicolon" unicode="&#x37e;" horiz-adv-x="360" 
d="M199 91l95 -69c6.66699 -16.667 -51 -91 -173 -223l-60 54zM280 924v-197h-190v197h190z" />
    <glyph glyph-name="less" unicode="&#x3c;" horiz-adv-x="940" 
d="M890 1074l-625 -359l625 -355v-167l-840 481v83l840 484v-167z" />
    <glyph glyph-name="equal" unicode="=" horiz-adv-x="940" 
d="M50 631h840v-140h-840v140zM50 943h840v-140h-840v140z" />
    <glyph glyph-name="greater" unicode="&#x3e;" horiz-adv-x="940" 
d="M50 1241l840 -484v-83l-840 -481v167l625 355l-625 359v167z" />
    <glyph glyph-name="question" unicode="?" horiz-adv-x="857" 
d="M286 1192l115.999 0.000976562c192.667 0 314 -94.667 364 -284l4 -56v-24c0 -132 -69.333 -233.333 -208 -304c-25.333 -16 -90.666 -28 -195.999 -36c-50.667 -28 -76 -62.667 -76 -104v-228c0 -14 -4 -22 -12 -24h-84l-8 8v224c0 111.333 57.333 187.333 172 228
c90 0 168.667 24 236 72c48 54.667 72 110.667 72 168v12c0 114 -56 190 -168 228c-30 10.667 -70 16 -120 16h-92c-64.667 0 -106 -21.333 -124 -64c-6 -34.667 -11.333 -52 -16 -52h-88l-8 8v8c0 93.333 53.333 158.666 160 195.999zM181.999 100.001h112l8 -8v-84l-8 -8
h-112l-8 8v84z" />
    <glyph glyph-name="at" unicode="@" horiz-adv-x="1615" 
d="M760 1192l79.002 0.000976562c194 0 372.667 -91 536 -273c109.333 -144 164 -286.333 164 -427v-64c-14.667 -253.333 -90.667 -407.333 -228 -462h-50c-96.667 0 -166 61.333 -208 184v20c-43.333 -36.667 -93 -55 -149 -55h-243c-102 0 -171.667 51.333 -209 154
l-5 30v44c0 75.333 48 133.333 144 174l40 10h293c43.333 0 84.666 -16.667 123.999 -50h5v80c0 86 -33.333 129 -100 129h-392l-10 10v84l10 10h382c97.333 0 165.333 -51.333 204 -154l5 -40v-352c0 -109.333 34.667 -164 104 -164h15c76.667 0 128 101 154 303l5 65
c0 243.333 -116 431.666 -348 564.999c-98.667 46.667 -192.667 70 -282 70c-212.667 0 -388.334 -96 -527.001 -288c-69.333 -111.333 -104 -225.333 -104 -342c0 -226.667 107.667 -410.334 323 -551.001c104.667 -50 194 -75 268 -75h10l10 -10v-94l-10 -10h-5
c-200 0 -382 92.667 -546 278c-106 144.667 -159 285.334 -159 422.001v79c0 194 91 372.667 273 536c144 109.333 286.333 164 427 164zM546.002 323.001c12.667 -69.333 46 -104.001 100 -104.001h278c62.667 12.667 94 47.334 94 104.001c0 60 -38 95 -114 105h-234
c-68.667 0 -110 -31.667 -124 -95v-10z" />
    <glyph glyph-name="A" unicode="A" horiz-adv-x="1636" 
d="M818 1192l768 -1188l-4 -4h-144l-340 516h-568c-187.333 -302 -298 -474 -332 -516h-140l-8 8zM814 956l-208 -328h420v4z" />
    <glyph glyph-name="B" unicode="B" horiz-adv-x="1296" 
d="M55 1198l761.001 0.000976562c106 0 195.667 -53.667 269 -161c26.667 -53.333 40 -104.333 40 -153c0 -85.333 -33 -161 -99 -227h-2v-2c79.333 -28.667 136.666 -75.334 171.999 -140.001c33.333 -54 50 -108.333 50 -163v-33c0 -102 -48 -190.333 -144 -265
c-54.667 -36 -110 -54 -166 -54h-881l-5 5v1188zM159.001 1092v-416h628c115.333 0 189.333 53.667 222 161l5 42v9c0 86.667 -47.333 150.667 -142 192c-24.667 8 -56 12 -94 12h-619zM159.001 558.001v-445h751c105.333 0 176.333 48.333 213 145
c9.33301 22.667 14 48.667 14 78c0 82.667 -36.333 147 -109 193c-30 19.333 -67.667 29 -113 29h-756z" />
    <glyph glyph-name="C" unicode="C" horiz-adv-x="1424" 
d="M630 1192l735.999 0.000976562l8 -8v-100l-8 -8h-728c-171.333 0 -308.666 -82.667 -411.999 -248c-40 -72 -60 -150.667 -60 -236v-4c0 -188 97.333 -333.333 292 -436c64 -24 128 -36 192 -36h716l8 -8v-100l-8 -8h-748c-174 0 -327.333 84 -460 252
c-72 103.333 -108 212.666 -108 327.999v44c0 174.667 84 328 252 460c104 72 213.333 108 328 108z" />
    <glyph glyph-name="D" unicode="D" horiz-adv-x="1452" 
d="M58 1192l772 0.000976562c203.333 0 370 -101.333 500 -304c48 -96 72 -184 72 -264v-56c0 -180.667 -89.333 -339.334 -268 -476.001c-106 -61.333 -203.333 -92 -292 -92h-784l-8 8v1176zM158 1076v-960h664c182.667 0 324 93.333 424 280c26.667 64 40 124 40 180v44
c0 152.667 -76 282 -228 388c-76 45.333 -154.667 68 -236 68h-664z" />
    <glyph glyph-name="E" unicode="E" horiz-adv-x="1292" 
d="M58 1192h1176l8 -8v-92l-8 -8h-1076v-448h740l8 -8v-96l-8 -8h-740v-416h1076l8 -8v-92l-8 -8h-1176l-8 8v1176z" />
    <glyph glyph-name="F" unicode="F" horiz-adv-x="1292" 
d="M58 1192h1176l8 -8v-92l-8 -8h-1076v-448h740l8 -8v-96l-8 -8h-740v-516l-8 -8h-92l-8 8v1176z" />
    <glyph glyph-name="G" unicode="G" horiz-adv-x="1424" 
d="M630 1192l736 0.000976562l8 -8v-100l-8 -8h-728c-171.333 0 -308.666 -82.667 -411.999 -248c-40 -72 -60 -150.667 -60 -236v-4c0 -188 97.333 -333.333 292 -436c64 -24 128 -36 192 -36h612v432h-568l-8 8v100l8 8h672l8 -8v-648l-8 -8h-748
c-174 0 -327.333 84 -460 252c-72 103.333 -108 212.666 -108 327.999v44c0 174.667 84 328 252 460c103.333 72 212.666 108 327.999 108z" />
    <glyph glyph-name="H" unicode="H" horiz-adv-x="1256" 
d="M58 1192h92l8 -8v-524h940v524l8 8h92l8 -8v-1176l-8 -8h-92l-8 8v544h-940v-544l-8 -8h-92l-8 8v1176z" />
    <glyph glyph-name="I" unicode="I" horiz-adv-x="1264" 
d="M58 1192h1148l8 -8v-92l-8 -8h-520v-976h520l8 -8v-92l-8 -8h-1148l-8 8v92l8 8h520v976h-520l-8 8v92z" />
    <glyph glyph-name="J" unicode="J" horiz-adv-x="1292" 
d="M410 1190l823.998 0.000976562l8 -8v-96l-8 -8h-232v-1084c0 -114 -62.667 -211.333 -188 -292c-47.333 -21.333 -92.666 -32 -135.999 -32h-316c-113.333 0 -208 66.667 -284 200c-18.667 48 -28 92 -28 132v8l8 8h96c5.33301 0 12 -26.667 20 -80
c28 -68.667 73.333 -115.334 136 -140.001c32.667 -8 75.334 -12 128.001 -12h192c173.333 0 260 90.667 260 272v1020h-480l-8 8v96z" />
    <glyph glyph-name="K" unicode="K" horiz-adv-x="1244" 
d="M58 1192h92l8 -8v-528l536 536h148v-4l-436 -444l788 -740v-4h-152l-716 668l-168 -172v-488l-8 -8h-92l-8 8v1176z" />
    <glyph glyph-name="L" unicode="L" horiz-adv-x="1252" 
d="M58 1192h92l8 -8v-1076h1036l8 -8v-92l-8 -8h-1136l-8 8v1176z" />
    <glyph glyph-name="M" unicode="M" horiz-adv-x="1624" 
d="M58 1192h100l656 -652l652 652h100l8 -8v-1176l-8 -8h-92l-8 8v1028l-652 -652h-4l-652 652v-1028l-8 -8h-92l-8 8v1176z" />
    <glyph glyph-name="N" unicode="N" horiz-adv-x="1248" 
d="M58 1192h100l932 -1064v1056l8 8h92l8 -8v-1176l-8 -8h-136l-896 1024v-1016l-8 -8h-92l-8 8v1176z" />
    <glyph glyph-name="O" unicode="O" horiz-adv-x="1448" 
d="M614 1192h220c176.667 0 332.667 -88 468 -264c64 -109.333 96 -210.666 96 -303.999v-56c0 -152.667 -68 -294 -204 -424c-116.667 -96 -236.667 -144 -360 -144h-220c-176.667 0 -332.667 88 -468 264c-64 109.333 -96 210.666 -96 303.999v56
c0 164.667 76 312.667 228 444c111.333 82.667 223.333 124 336 124zM166 616l0.000976562 -24c0 -204.667 104 -354 312 -448c56.667 -18.667 108.667 -28 156 -28h180c186 0 328.667 94.667 428 284c26.667 59.333 40 123.333 40 192v24c0 158 -80 291.333 -240 400
c-80 40 -156 60 -228 60h-180c-182.667 0 -325.334 -93.333 -428.001 -280c-26.667 -70 -40 -130 -40 -180z" />
    <glyph glyph-name="P" unicode="P" horiz-adv-x="1248" 
d="M58 1192h823.999c118.667 0 212 -56 280 -168c24 -44.667 36 -84.667 36 -120v-36c0 -132 -74.667 -229.333 -224 -292c-33.333 -8 -62.666 -12 -87.999 -12h-728v-556l-8 -8h-92l-8 8v1176zM157.999 1084v-412h720c98 0 166 50.667 204 152l8 56
c0 88.667 -50.667 154 -152 196l-72 8h-708z" />
    <glyph glyph-name="Q" unicode="Q" horiz-adv-x="1436" 
d="M634 1192h164.001c228 0 404 -109.333 528 -328c40 -82 60 -164.667 60 -248v-48c0 -132 -57.333 -262.667 -172 -392l96 -100l-76 -76l-108 104c-96 -66.667 -225.333 -100 -388 -100h-40c-196.667 0 -347.334 50.667 -452.001 152c-130.667 127.333 -196 266 -196 416
v56c0 156 70.667 298.667 212 428c112 90.667 236 136 372 136zM162.001 600c0 -149.333 62.667 -276 188 -380c88 -64 176 -96 264 -96h200c72.667 0 148.667 21.333 228 64l-164 168v4l72 72h4l176 -172c96 98 144 210 144 336c0 183.333 -88 327.333 -264 432
c-70.667 32 -144 48 -220 48h-136c-239.333 0 -399.333 -122.667 -480 -368z" />
    <glyph glyph-name="R" unicode="R" horiz-adv-x="1296" 
d="M58 1192l888 -0.000976562c108.667 0 200.667 -62.667 276 -188c16 -49.333 24 -86.666 24 -111.999v-32c0 -132 -72 -229.333 -216 -292c-31.333 -10.667 -59.333 -16 -84 -16h-212l508 -548v-4h-144l-516 552h-424v-544l-8 -8h-92l-8 8v1176zM158 1084
l0.000976562 -420h788c71.333 0 128.666 41.333 171.999 124c7.33301 10.667 14 38.667 20 84c0 91.333 -49.333 158 -148 200l-36 8z" />
    <glyph glyph-name="S" unicode="S" horiz-adv-x="1336" 
d="M350 1192l887.998 -0.00390625l8 -8v-92l-8 -8h-812c-109.333 0 -180 -24 -212 -72c-37.333 -43.333 -56 -88.666 -56 -135.999c0 -101.333 53.333 -170.666 160 -207.999l40 -4h604c124.667 0 222 -62.667 292 -188c21.333 -40.667 32 -84.667 32 -132v-40
c0 -96.667 -56 -184.667 -168 -264c-57.333 -26.667 -102.666 -40 -135.999 -40h-924l-8 8v96l8 8h856c130.667 0 213.334 49.333 248.001 148l12 68c0 109.333 -57.333 181.333 -172 216l-28 4l-636 4c-76 0 -153.333 44 -232 132c-37.333 60.667 -56 119.334 -56 176.001
v32c0 106.667 60 197.334 180 272.001c51.333 18.667 91.333 28 120 28z" />
    <glyph glyph-name="T" unicode="T" horiz-adv-x="1636" 
d="M58 1192h1520l8 -8v-92l-8 -8h-704v-1076l-8 -8h-96l-8 8v1076h-704l-8 8v92z" />
    <glyph glyph-name="U" unicode="U" horiz-adv-x="1268" 
d="M58 1192h96.001l8 -8v-544c0 -246.667 98.667 -410.667 296 -492c31.333 -17.333 90 -29.333 176 -36c180 0 321.333 88 424 264c32 64 48 150.667 48 260v548l8 8h96l8 -8v-628c0 -162 -77.333 -308.667 -232 -440c-106.667 -77.333 -218.667 -116 -336 -116h-44
c-162.667 -0 -309.334 77.333 -440.001 232c-77.333 106.667 -116 218.667 -116 336v616z" />
    <glyph glyph-name="V" unicode="V" horiz-adv-x="1636" 
d="M198 1192l624 -956c382.667 601.333 588 920 616 956h140l8 -8l-764 -1180l-4 -4h-4l-764 1188l4 4h144z" />
    <glyph glyph-name="W" unicode="W" horiz-adv-x="1628" 
d="M158 1192c5.33301 0 28 -78.668 68 -236.001l196 -744h4c0 6.66699 128 137.334 384 392.001l392 -392l264 980h104l8 -8l-320 -1184h-4l-448 448l-436 -444c-6 0 -30 85.333 -72 256l-248 928l4 4h104z" />
    <glyph glyph-name="X" unicode="X" horiz-adv-x="1244" 
d="M50 1192h136l436 -508l436 508h136v-4l-500 -596l500 -588l-4 -4h-136l-432 508l-432 -508h-132l-8 8l500 588l-500 592v4z" />
    <glyph glyph-name="Y" unicode="Y" horiz-adv-x="1244" 
d="M50 1192l136 -0.000976562l436 -508l436 508h136v-4l-516 -616v-564l-8 -8h-96l-8 8v556c0 12.667 -40 63.334 -120 152.001l-396 472v4z" />
    <glyph glyph-name="Z" unicode="Z" horiz-adv-x="1248" 
d="M58 1192h1132l8 -8v-96l-988 -980h980l8 -8v-92l-8 -8h-1132l-8 8v96l992 980h-984l-8 8v92z" />
    <glyph glyph-name="bracketleft" unicode="[" horiz-adv-x="497" 
d="M50 -407v1873h397v-149h-217v-1575h217v-149h-397z" />
    <glyph glyph-name="backslash" unicode="\" horiz-adv-x="669" 
d="M475 -25l-425 1516h145l424 -1516h-144z" />
    <glyph glyph-name="bracketright" unicode="]" horiz-adv-x="497" 
d="M447 -407h-397v149h217v1575h-217v149h397v-1873z" />
    <glyph glyph-name="asciicircum" unicode="^" horiz-adv-x="953" 
d="M235 690h-185l353 801h145l355 -801h-181l-247 597z" />
    <glyph glyph-name="underscore" unicode="_" horiz-adv-x="1124" 
d="M50 -100h1024v-60h-1024v60z" />
    <glyph glyph-name="grave" unicode="`" horiz-adv-x="286" 
d="M236 1265l-24 -48c-108 52 -162 84 -162 96l42 66z" />
    <glyph glyph-name="a" unicode="a" horiz-adv-x="876" 
d="M174 736h440.001c85.333 0 150.666 -46.667 195.999 -140c10.667 -22 16 -44.667 16 -68v-520l-8 -8h-92l-8 8v52c-46.667 -40 -92 -60 -136 -60h-324c-81.333 0 -145.333 46.667 -192 140c-10.667 22 -16 44.667 -16 68v28c0 96 56 165.333 168 208l68 8h264
c64 0 120 -20 168 -60v84c0 101.333 -44 152 -132 152h-412l-8 8v92zM158.001 224c15.333 -77.333 54 -115.999 116 -115.999h260c74 0 120.667 26.667 140 80l4 28v8c0 57.333 -29.333 94.666 -88 111.999l-32 4h-276c-82.667 -10 -124 -48.667 -124 -116z" />
    <glyph glyph-name="b" unicode="b" horiz-adv-x="868" 
d="M58 1088h91.999l8 -8v-376h4c31.333 21.333 75.333 32 132 32h136c196.667 0 324.667 -98.667 384 -296l4 -64v-24c0 -147.333 -82.667 -259.333 -248 -336c-42 -10.667 -76.667 -16 -104 -16h-220c-27.333 4 -56.666 13.333 -87.999 28v-20l-8 -8h-92l-8 8v1072z
M157.999 480l-0.000976562 -220c0 -65.333 16 -108 48 -128c18.667 -13.333 36 -20 52 -20h208c101.333 0 177.333 57.333 228 172c8 21.333 12 44 12 68v28c0 98 -53.333 172.667 -160 224c-27.333 13.333 -64.666 20 -111.999 20h-156c-80 0 -120 -48 -120 -144z" />
    <glyph glyph-name="c" unicode="c" 
d="M402 736l411.998 0.000976562l8 -8v-96l-8 -8h-408c-106 0 -183.333 -58.667 -232 -176c-8 -21.333 -12 -44 -12 -68v-24c0 -101.333 54.667 -177.333 164 -228c26.667 -10.667 53.334 -16 80.001 -16h408l8 -8v-96l-8 -8h-412c-129.333 0 -234.666 68 -315.999 204
c-24 52 -36 101.333 -36 148v32c0 129.333 68 234.666 204 315.999c52 24 101.333 36 148 36z" />
    <glyph glyph-name="d" unicode="d" horiz-adv-x="868" 
d="M718 1088h91.998l8 -8v-1072l-8 -8h-92l-8 8v20h-4c-37.333 -18.667 -69.333 -28 -96 -28h-208c-129.333 0 -234.666 68 -315.999 204c-24 52 -36 101.333 -36 148v32c0 142 78.667 252.667 236 332c48.667 16 115.334 24 200.001 24h60c68 0 122.667 -10.667 164 -32
v372zM397.998 624c-94 0 -167.334 -54.666 -220.001 -163.999c-10.667 -26.667 -16 -53.334 -16 -80.001v-24c0 -100 54.667 -176 164 -228c26.667 -10.667 53.334 -16 80.001 -16h8l180 -4c63.333 0 102 40 116 120v248c0 101.333 -41.333 152 -124 152z" />
    <glyph glyph-name="e" unicode="e" 
d="M402 736h212c80.667 0 144.667 -46.667 192 -140c10.667 -22 16 -44.667 16 -68v-32c0 -94 -54.667 -163.333 -164 -208l-72 -8h-408c4 -25.333 25.333 -58.666 64 -99.999c40 -48 125.333 -72 256 -72h256l8 -8v-92l-8 -8h-352c-132.667 0 -238 69.333 -316 208
c-24 46 -36 94 -36 144v32c0 129.333 68 234.666 204 315.999c52 24 101.333 36 148 36zM162 392l432.001 0.000976562c77.333 9.33301 116 46.666 116 111.999l4 4c0 62 -34.667 100.667 -104 116h-204c-106.667 0 -185.334 -61.333 -236.001 -184z" />
    <glyph glyph-name="f" unicode="f" horiz-adv-x="672" 
d="M394 1088h220l8 -8v-92l-8 -8h-176c-65.333 0 -109.333 -22.667 -132 -68l-8 -48v-120h208l8 -8v-92l-8 -8h-208v-628l-8 -8h-96l-8 8v628h-128l-8 8v92l8 8h128v124c0 97.333 53.333 168 160 212z" />
    <glyph glyph-name="g" unicode="g" horiz-adv-x="860" 
d="M482 738l60.002 -0.000976562c76 0 130.667 -12 164 -36c0 24 2.66699 36 8 36h88l8 -8v-828c0 -152 -82.667 -265.333 -248 -340c-42 -10.667 -76.667 -16 -104 -16h-24c-144.667 0 -255.334 76 -332.001 228c-18.667 56 -28 101.333 -28 136l4 4h96l8 -8v-16
c0 -90 52 -163.333 156 -220c34 -13.333 64.667 -20 92 -20h28c101.333 0 178.666 56 231.999 168c10.667 26.667 16 53.334 16 80.001v136c-33.333 -24 -85.333 -36 -156 -36h-88c-190.667 0 -320 77.333 -388 232c-16 44 -24 86.667 -24 128v24c0 140.667 76 250 228 328
c42 18.667 110 28 204 28zM154.002 381.999v-28c0 -104.667 58.667 -183.334 176 -236.001c32 -10.667 81.333 -16 148 -16h84c70 0 115.333 24 136 72l8 36v316c0 47.333 -30.667 82 -92 104l-44 4h-68c-136 0 -222.667 -22.667 -260 -68
c-58.667 -55.333 -88 -116.666 -88 -183.999z" />
    <glyph glyph-name="h" unicode="h" horiz-adv-x="868" 
d="M58 1088h92l8 -8v-376c33.333 21.333 69.333 32 108 32h336c104 0 176 -61.333 216 -184v-544l-8 -8h-92l-8 8v468c0 74 -22.667 120.667 -68 140c-24 8 -53.333 12 -88 12h-240c-73.333 0 -120 -20 -140 -60c-10.667 -22 -16 -52.667 -16 -92v-468l-8 -8h-92l-8 8v1072z
" />
    <glyph glyph-name="i" unicode="i" horiz-adv-x="208" 
d="M58 884h92l8 -8v-72l-8 -8h-92l-8 8v72zM58 736h92l8 -8v-720l-8 -8h-92l-8 8v720z" />
    <glyph glyph-name="j" unicode="j" horiz-adv-x="544" 
d="M390 889h96l8 -8v-76l-8 -8h-96l-8 8v76zM390 737l96 0.000976562l8 -8v-984c0 -96.667 -57.333 -167.334 -172 -212.001l-44 -4h-220l-8 8v96l8 8h208c77.333 9.33301 116 48 116 116v972z" />
    <glyph glyph-name="k" unicode="k" horiz-adv-x="712" 
d="M58 1088h92.001l8 -8v-392h4c144.667 258.667 222 392 232 400h120c0 -7.33301 -78.667 -147.333 -236 -420v-4l384 -660l-4 -4h-120c-4.66699 0 -111.334 186.667 -320.001 560c-40 -58.667 -60 -94.667 -60 -108v-444l-8 -8h-92l-8 8v1072z" />
    <glyph glyph-name="l" unicode="l" horiz-adv-x="332" 
d="M58 1088h92l8 -8v-824c0 -65.333 20 -109.333 60 -132c42.667 -10 64 -18 64 -24v-92l-8 -8h-16c-80 0 -144 46.667 -192 140c-10.667 22 -16 44.667 -16 68v872z" />
    <glyph glyph-name="m" unicode="m" horiz-adv-x="1115" 
d="M58 736h92.002c5.33301 0 8 -10.667 8 -32c36.667 21.333 74 32 112 32h132c52 0 105.333 -26.667 160 -80c46 53.333 99.333 80 160 80h132c82 0 146 -46.667 192 -140c10.667 -22 16 -44.667 16 -68v-520l-8 -8h-92l-8 8v476c0 68 -22.667 112 -68 132
c-10.667 5.33301 -25.334 8 -44.001 8h-112c-66.667 0 -104 -40 -112 -120v-496l-8 -8h-100l-8 8v476c0 68 -22.667 112 -68 132c-10.667 5.33301 -25.334 8 -44.001 8h-116c-50.667 0 -86.667 -25.333 -108 -76l-8 -56v-484l-8 -8h-92l-8 8v720z" />
    <glyph glyph-name="n" unicode="n" horiz-adv-x="804" 
d="M58 736h92.001c5.33301 0 8 -10.667 8 -32c36.667 21.333 74 32 112 32h276c82 0 146 -46.667 192 -140c10.667 -22 16 -44.667 16 -68v-520l-8 -8h-92l-8 8v476c0 68 -22.667 112 -68 132c-10.667 5.33301 -25.334 8 -44.001 8h-260c-50.667 0 -86.667 -25.333 -108 -76
l-8 -56v-484l-8 -8h-92l-8 8v720z" />
    <glyph glyph-name="o" unicode="o" 
d="M402 736l68 0.00195312c132.667 0 238 -69.333 316 -208c24 -46 36 -94 36 -144v-32c0 -132.667 -70.667 -239.334 -212 -320.001c-49.333 -21.333 -96 -32 -140 -32h-68c-132.667 0 -238 69.333 -316 208c-24 46 -36 94 -36 144v32c0 129.333 68 234.666 204 315.999
c52 24 101.333 36 148 36zM162 380.002l0.000976562 -23.999c0 -100 54.667 -176 164 -228c26.667 -10.667 53.334 -16 80.001 -16h60c105.333 0 182.666 58.667 231.999 176c8 21.333 12 44 12 68v24c0 100 -54.667 176 -164 228c-26.667 10.667 -53.334 16 -80.001 16h-60
c-100 0 -176 -54.667 -228 -164c-10.667 -26.667 -16 -53.334 -16 -80.001z" />
    <glyph glyph-name="p" unicode="p" horiz-adv-x="804" 
d="M58 737h84c5.33301 0 8 -9.33301 8 -28c31.333 18.667 62 28 92 28h200c110 0 204.667 -64 284 -192c18.667 -50 28 -94 28 -132v-24c0 -131.333 -69.333 -231.333 -208 -300c-38.667 -18.667 -92 -28 -160 -28h-104c-48.667 0 -92.667 9.33301 -132 28v-432l-8 -8h-84
l-8 8v1072zM150 525v-248.001c6.66699 -74.667 42.667 -112 108 -112h148c118.667 0 198.667 58.667 240 176l8 56c0 118.667 -65.333 197.334 -196 236.001l-72 4h-124c-58 0 -94 -28 -108 -84z" />
    <glyph glyph-name="q" unicode="q" horiz-adv-x="804" 
d="M362 739h200.001c30 0 60.667 -9.33301 92 -28c0 18.667 2.66699 28 8 28h84l8 -8v-1072l-8 -8h-84l-8 8v432h-4c-32.667 -18.667 -75.334 -28 -128.001 -28h-104c-184.667 0 -304.667 85.333 -360 256l-8 72v24c0 132.667 72 234 216 304c39.333 13.333 71.333 20 96 20
zM150.001 389c0 -100 54.6689 -173.333 164.002 -220c28 -8 56 -12 84 -12h144c74.667 6.66699 112 42.667 112 108v252c0 58 -30.667 95.333 -92 112h-144c-122.667 0 -205.334 -48 -248.001 -144c-10.667 -23.333 -17.334 -55.333 -20.001 -96z" />
    <glyph glyph-name="r" unicode="r" horiz-adv-x="524" 
d="M58 736h96c5.33301 0 8 -9.33301 8 -28c36 18.667 68 28 96 28h208l8 -8v-96l-8 -8h-204c-66.667 -16.667 -100 -50 -100 -100v-516l-8 -8h-96l-8 8v720z" />
    <glyph glyph-name="s" unicode="s" 
d="M254 736h444l8 -8v-96l-8 -8h-444c-56 -10 -84 -36.667 -84 -80v-20c11.333 -50.667 44.666 -76 99.999 -76h316c113.333 0 190.666 -57.333 231.999 -172l4 -36v-32c0 -81.333 -46.667 -145.333 -140 -192c-22 -10.667 -44.667 -16 -68 -16h-556l-8 8v96l8 8h552
c52.667 0 87.334 36 104.001 108c-14 74.667 -47.333 112 -100 112l-28 4h-308c-105.333 0 -180 53.333 -224 160l-4 40c0 87.333 53.333 151.333 160 192c10.667 5.33301 25.334 8 44.001 8z" />
    <glyph glyph-name="t" unicode="t" horiz-adv-x="560" 
d="M234 1088h91.999l8 -8v-240h168l8 -8v-96l-8 -8h-168v-472c0 -70 22.667 -115.333 68 -136c37.333 -8 56 -14.667 56 -20v-92l-8 -8h-12c-95.333 -0 -164.666 57.333 -207.999 172l-4 44v512h-168l-8 8v96l8 8h168v240z" />
    <glyph glyph-name="u" unicode="u" horiz-adv-x="804" 
d="M58 736h91.999l8 -8v-476c0 -68 22.667 -112 68 -132c10.667 -5.33301 25.334 -8 44.001 -8h260c50.667 0 86.667 25.333 108 76l8 56v484l8 8h92l8 -8v-720l-8 -8h-92c-5.33301 0 -8 10.667 -8 32c-36.667 -21.333 -74 -32 -112 -32h-276
c-81.333 0 -145.333 46.667 -192 140c-10.667 22 -16 44.667 -16 68v520z" />
    <glyph glyph-name="v" unicode="v" horiz-adv-x="876" 
d="M174 732c26.667 -42.667 114.667 -208 264 -496h4c104.667 206 192.667 371.333 264 496h112l4 -4h4c-246.667 -471.333 -376 -714 -388 -728l-192 364l-196 364l4 4h120z" />
    <glyph glyph-name="w" unicode="w" 
d="M162 732c8.66699 -3.33301 42 -110 100 -320c26 -85.333 40.667 -128 44 -128l124 208h12l124 -208c6 0 43.333 122.667 112 368c16 53.333 26.667 80 32 80h104l4 -4h4l-220 -728h-4c-20.667 26 -72.667 114 -156 264h-8c-94 -163.333 -147.333 -251.333 -160 -264h-4
l-220 728l4 4h108z" />
    <glyph glyph-name="x" unicode="x" horiz-adv-x="800" 
d="M114 736h139.999c24 -24 72 -93.333 144 -208h8c80.667 128.667 127.334 198 140.001 208h140v-8l-208 -312v-4l272 -408l-4 -4h-140c-96.667 131.333 -164.667 231.333 -204 300l-208 -300h-136l-8 8l276 408l-212 312v8z" />
    <glyph glyph-name="y" unicode="y" horiz-adv-x="876" 
d="M170 734c16 -17.333 58.667 -94.667 128 -232l140 -264h4c155.333 306 243.333 471.333 264 496h112l4 -4h4c-408 -776.667 -618.667 -1172.67 -632 -1188h-120l300 576l-324 612l4 4h116z" />
    <glyph glyph-name="z" unicode="z" 
d="M58 736h756l8 -8v-100l-604 -516h592l8 -8v-96l-8 -8h-752l-8 8v104l604 516h-596l-8 8v92z" />
    <glyph glyph-name="braceleft" unicode="{" horiz-adv-x="744" 
d="M50 698c114.667 3.33301 188.999 26.999 222.999 70.999s51 88.333 51 133v468c0 49.333 25.667 96.5 77 141.5s113 67.5 185 67.5h108v-50h-90c-40.667 0 -76.334 -11.167 -107.001 -33.5s-46.334 -52.833 -47.001 -91.5v-500
c0 -55.333 -20.167 -108.166 -60.5 -158.499s-87.833 -75.833 -142.5 -76.5v-2c54.667 -0.666992 102.334 -26 143.001 -76s61 -102.667 61 -158l-1 -500c0.666992 -38.667 16.334 -69.167 47.001 -91.5s66.334 -33.5 107.001 -33.5h90v-50h-108
c-72 0 -133.5 22.5 -184.5 67.5s-76.833 92.167 -77.5 141.5v468c0 44 -17 88 -51 132s-108.333 67.667 -223 71v60z" />
    <glyph glyph-name="bar" unicode="|" horiz-adv-x="260" 
d="M50 1577h160v-1995h-160v1995z" />
    <glyph glyph-name="braceright" unicode="}" horiz-adv-x="744" 
d="M694 638c-114.667 -3.33301 -189.001 -26.999 -223.001 -70.999s-51 -88 -51 -132v-468c-0.666992 -49.333 -26.5 -96.5 -77.5 -141.5s-112.5 -67.5 -184.5 -67.5h-108v50h90c40.667 0 76.334 11.167 107.001 33.5s46.334 52.833 47.001 91.5l-1 500
c0 55.333 20.333 108 61 158s88.667 75.333 144 76v2c-55.333 0.666992 -103.166 26.167 -143.499 76.5s-60.5 103.166 -60.5 158.499v500c-0.666992 38.667 -16.334 69.167 -47.001 91.5s-66.334 33.5 -107.001 33.5h-90v50h108c72 0 133.667 -22.5 185 -67.5
s77 -92.167 77 -141.5v-468c0 -44.667 17 -89 51 -133s108.333 -67.667 223 -71v-60z" />
    <glyph glyph-name="asciitilde" unicode="~" horiz-adv-x="520" 
d="M286 594c-38 18.667 -67.668 34.333 -89.001 47c-27.333 -16 -68.333 -37.333 -123 -64l-24 48l140 111l4 6l40 -32c40.667 -20 72.334 -36.667 95.001 -50c26.667 16 65.667 36.333 117 61l24 -48l-144 -114l-4 6z" />
    <glyph glyph-name="exclamdown" unicode="&#xa1;" horiz-adv-x="305" 
d="M93 -129v899h126v-899h-126zM75 854v144h162v-144h-162z" />
    <glyph glyph-name="cent" unicode="&#xa2;" 
d="M605 834h85h-85zM690 834l-63.002 -97.999h187l8 -8v-96l-8 -8h-259l-294 -458c18.667 -14 40.334 -26.667 65.001 -38c26.667 -10.667 53.334 -16 80.001 -16h408l8 -8v-96l-8 -8h-412c-76 0 -143.333 23.333 -202 70l-64 -99h-86l96 150
c-21.333 24 -41.333 51.667 -60 83c-24 52 -36 101.333 -36 148v32c0 129.333 68 234.666 204 315.999c52 24 101.333 36 148 36h140l63 98h85zM469.998 624.001h-64c-106 0 -183.333 -58.667 -232 -176c-8 -21.333 -12 -44 -12 -68v-24c0 -53.333 15.333 -100 46 -140z" />
    <glyph glyph-name="sterling" unicode="&#xa3;" horiz-adv-x="960" 
d="M722 1347c-48 20.667 -101.333 30.999 -160 30.999h-2c-66.667 0 -130 -33.667 -190 -101c-56 -62 -84 -142.333 -84 -241c0 -10 0.333008 -20 1 -30c0 -90 17.667 -181 53 -273h360v-60h-334c9.33301 -20 19.666 -40 30.999 -60c23.333 -42 35 -88 35 -138
c0 -107.333 -54 -232.333 -162 -375h402c86.667 0 149.667 44 189 132l49 -1l-103 -231h-719l1 50c124.667 158.667 187 298 187 418c0 51.333 -11.333 99 -34 143c-11.333 21.333 -21.666 42 -30.999 62h-161v60h135c-38.667 95.333 -58 179.666 -58 252.999
c0 150.667 41.167 266.334 123.5 347.001s184.5 121 306.5 121h4c50 0 111.833 -4.66699 185.5 -14s110.5 -20.666 110.5 -33.999v-161h-58c-3.33301 40.667 -29 74.667 -77 102z" />
    <glyph glyph-name="currency" unicode="&#xa4;" horiz-adv-x="869" 
d="M278 560c27.333 -26.667 60.333 -45.6641 99 -56.9971c19.333 -5.33301 38.666 -8 57.999 -8s38.666 2.66699 57.999 8c38.667 11.333 71.667 30.333 99 57c26.667 27.333 45.667 60.333 57 99c6 19.333 9 38.666 9 57.999s-3 38.666 -9 57.999
c-11.333 38.667 -30.333 71.667 -57 99c-27.333 26.667 -60.666 45.667 -99.999 57c-19.333 5.33301 -38.666 8 -57.999 8s-38.666 -3 -57.999 -9c-38.667 -11.333 -71.334 -30 -98.001 -56c-26 -26.667 -44.667 -59.334 -56 -98.001c-6.66699 -20 -10 -40 -10 -60
c0 -18.667 3 -37.334 9 -56.001c10.667 -39.333 29.667 -72.666 57 -99.999zM168 903.003l-118.001 118l80 81l118 -118c29.333 20 62.333 35.333 99 46c29.333 9.33301 59 14 89 14c27.333 0 55 -4 83 -12c38 -11.333 72 -27.333 102 -48l118 118l80 -81l-117 -117
c20.667 -30.667 36.667 -64.667 48 -102c8 -28 12 -56.333 12 -85c0 -28 -4 -56.333 -12 -85c-11.333 -37.333 -27.333 -71.333 -48 -102l117 -117l-80 -81l-118 118c-30 -21.333 -63.667 -37.333 -101 -48c-28 -8 -56.333 -12 -85 -12c-28 0 -56.333 4 -85 12
c-38 10.667 -72 26.667 -102 48l-118 -118l-80 81l118 117c-21.333 30.667 -37.333 65 -48 103c-8 28 -12 56 -12 84c0 29.333 4.33301 58.333 13 87c10.667 36.667 26.334 69.667 47.001 99z" />
    <glyph glyph-name="yen" unicode="&#xa5;" horiz-adv-x="1366" 
d="M589 225l-1.99707 241.993c0 12.667 -0.5 24.334 -1.5 35.001s-2.5 21.334 -4.5 32.001l-484 1c-9.33301 0 -16.333 2.16699 -21 6.5s-7 10.833 -7 19.5s2.16699 15 6.5 19s11.5 6 21.5 6h467l-121 172h-344c-11.333 0 -19.166 1.83301 -23.499 5.5
s-6.5 9.83398 -6.5 18.501c0 9.33301 2 15.833 6 19.5s11.333 5.5 22 5.5h307c-28.667 38 -64.667 89.667 -108 155c-87.333 131.333 -163 197 -227 197c-4.66699 0 -9 1.83301 -13 5.5s-6 7.5 -6 11.5c0 12.667 3.5 21.834 10.5 27.501s17.833 8.5 32.5 8.5
c18 0 59 -2.66699 123 -8s118.667 -8 164 -8h57h31c22 0 35.667 -2.16699 41 -6.5s8 -13.166 8 -26.499c0 -5.33301 -5 -10 -15 -14s-22.667 -6 -38 -6c-4 0 -10.167 0.666992 -18.5 2s-14.5 2 -18.5 2c-16 0 -28.5 -3.16699 -37.5 -9.5s-13.5 -14.833 -13.5 -25.5
c0 -12 5.5 -29.333 16.5 -52s26.5 -48.334 46.5 -77.001l158 -221c8.66699 -12.667 19.667 -30.334 33 -53.001c27.333 -46.667 51 -70 71 -70c6 0 11.5 1.66699 16.5 5s9.83301 8.33301 14.5 15l277 396c5.33301 8 9.66602 16.833 12.999 26.5s5 17.834 5 24.501
c0 12 -3.33301 21 -10 27s-19 10.667 -37 14c-10 1.33301 -23.667 2.66602 -41 3.99902c-31.333 2 -47 10.333 -47 25c0 10 2.66699 17.5 8 22.5s13.666 7.5 24.999 7.5c2 0 7 -0.333008 15 -1c37.333 -4.66699 73.333 -7 108 -7h139c20 0 41.667 0.333008 65 1
s35.666 1 36.999 1c7.33301 0 13.5 -1.5 18.5 -4.5s7.83301 -6.83301 8.5 -11.5c0 -18.667 -12.667 -30 -38 -34c-12 -2 -21 -3.66699 -27 -5c-42 -10 -91 -49 -147 -117l-12 -15l-169 -206h323c10 0 18 -2 24 -6s9 -9.66699 9 -17c0 -10 -2 -16.833 -6 -20.5
s-11.667 -5.5 -23 -5.5h-366c-30.667 -38 -62.834 -75.5 -96.501 -112.5s-51.167 -56.833 -52.5 -59.5h511c12 0 20.5 -1.83301 25.5 -5.5s7.5 -9.5 7.5 -17.5c0 -9.33301 -2.33301 -16.333 -7 -21s-12 -7 -22 -7h-530c0 -7.33301 -0.333008 -17.5 -1 -30.5
s-1 -22.833 -1 -29.5l2 -215c0 -76 1.83301 -126 5.5 -150s10.5 -38.667 20.5 -44c20 -11.333 55.833 -17.666 107.5 -18.999s77.5 -11.666 77.5 -30.999c0 -8 -3.33301 -14.667 -10 -20s-15 -8 -25 -8c-1.33301 0 -13.166 1.33301 -35.499 4s-43.833 4 -64.5 4
c-60.667 0 -130.167 -1.33301 -208.5 -4s-125.833 -4 -142.5 -4c-20.667 0 -34 1.33301 -40 4s-9 8 -9 16s2.66699 14.167 8 18.5s17.666 8.5 36.999 12.5c6 1.33301 14.333 3 25 5c49.333 10.667 80 21.334 92 32.001c11.333 8.66699 19.333 24.334 24 47.001
s7 56.667 7 102z" />
    <glyph glyph-name="brokenbar" unicode="&#xa6;" horiz-adv-x="260" 
d="M50 371h160v-789h-160v789zM50 1578h160v-789h-160v789z" />
    <glyph glyph-name="section" unicode="&#xa7;" horiz-adv-x="774" 
d="M425 321c37.333 10.667 69.668 28.3359 97.001 53.0029c48.667 43.333 73 98.666 73 165.999c0 3.33301 -0.333008 6.66602 -1 9.99902h-2c-0.666992 9.33301 -2 18.333 -4 27c-14.667 40.667 -52.334 83 -113.001 127c-39.333 19.333 -81.333 29 -126 29
c-52 0 -93.667 -14.833 -125 -44.5s-47 -68.834 -47 -117.501c0 -82 82.667 -165.333 248 -250zM346.002 -345.998c75.333 4 137.001 26.9971 185.001 68.9971c48 42.667 72 97.667 72 165c0 83.333 -105.333 175.333 -316 276c-82 42.667 -140.5 88.334 -175.5 137.001
s-52.5 107.667 -52.5 177c0 98.667 29.667 177.667 89 237c44.667 43.333 101.334 70.666 170.001 81.999l-40 19c-82 42.667 -140.5 88.334 -175.5 137.001s-52.5 107.667 -52.5 177c0 98.667 29.667 177.667 89 237c54.667 52.667 126.667 81.334 216 86.001
c5.33301 0.666992 11 1 17 1h3c44 0 98.333 -5.5 163 -16.5s97 -24.833 97 -41.5v-194h-51c-3.33301 54 -30 98 -80 132c-46.667 31.333 -96.334 48.333 -149.001 51h-15c-52 0 -93.667 -14.833 -125 -44.5s-47 -68.834 -47 -117.501c0 -88 95.667 -177.667 287 -269
c99.333 -44.667 167.5 -92.5 204.5 -143.5s55.5 -113.5 55.5 -187.5c0 -114 -33.667 -208 -101 -282c-31.333 -26 -64.333 -47.333 -99 -64c72 -37.333 123.333 -76.666 154 -117.999c36.667 -51.333 55 -113.666 55 -186.999c0 -114 -33.667 -208.333 -101 -283
c-82.667 -68 -175 -103 -277 -105v1c-4 -0.666992 -8.33301 -1 -13 -1h-3c-44 0 -98.333 5.5 -163 16.5s-97 24.833 -97 41.5v194h51c3.33301 -54 30 -98 80 -132c45.333 -30 93.666 -46.667 144.999 -50z" />
    <glyph glyph-name="dieresis" unicode="&#xa8;" horiz-adv-x="419" 
d="M156 1327v-136h-106v136h106zM369 1327v-137h-106v137h106z" />
    <glyph glyph-name="copyright" unicode="&#xa9;" horiz-adv-x="1574" 
d="M790 1456c96.667 0 190 -18.835 280 -56.502s169.667 -91.167 239 -160.5c68 -67.333 120.833 -146.666 158.5 -237.999s56.5 -185.666 56.5 -282.999c0 -98 -18.833 -192 -56.5 -282s-91.834 -170 -162.501 -240c-70 -70 -149.667 -123.167 -239 -159.5
s-183.666 -54.5 -282.999 -54.5c-97.333 0 -190 18.5 -278 55.5s-167.333 90.5 -238 160.5c-70.667 69.333 -124.5 148.5 -161.5 237.5s-55.5 183.167 -55.5 282.5c0 98.667 18.5 193 55.5 283s90.167 169.333 159.5 238c68 69.333 147.5 122.833 238.5 160.5
s186.5 56.5 286.5 56.5zM307 1197c-63.333 -64 -112.004 -137.168 -146.004 -219.501s-51 -168.833 -51 -259.5c0 -91.333 17 -177.666 51 -258.999s83.333 -154.333 148 -219c65.333 -64 138.333 -113 219 -147s166 -51 256 -51c91.333 0 177.833 16.833 259.5 50.5
s154.834 82.167 219.501 145.5c64.667 65.333 114.334 139.166 149.001 221.499s52 168.5 52 258.5c0 89.333 -17.333 175.833 -52 259.5s-83 156.834 -145 219.501c-64 64 -137.333 113.167 -220 147.5s-168.667 51.5 -258 51.5c-91.333 0 -178.666 -17.167 -261.999 -51.5
s-156.666 -83.5 -219.999 -147.5zM664.996 1146l480.002 -0.000976562l9 -9v-112l-9 -9h-475c-124 0 -214.333 -68.333 -271 -205c-9.33301 -25.333 -14 -52 -14 -80v-27c0 -118 63.667 -206.667 191 -266c31.333 -12.667 62.666 -19 93.999 -19h475l9 -9v-112l-9 -9h-480
c-150.667 0 -273.334 79.333 -368.001 238c-28 60 -42 117.333 -42 172v37c0 150.667 79.333 273.334 238 368.001c60 28 117.333 42 172 42z" />
    <glyph glyph-name="ordfeminine" unicode="&#xaa;" horiz-adv-x="488" 
d="M112 1105l219.999 0.000976562c42.667 0 75.334 -23.333 98.001 -70c5.33301 -10.667 8 -22 8 -34v-260l-4 -4h-46l-4 4v26c-23.333 -20 -46 -30 -68 -30h-162c-40.667 0 -72.667 23.333 -96 70c-5.33301 11.333 -8 22.666 -8 33.999v14c0 48 28 82.667 84 104l34 4h132
c32 0 60 -10 84 -30v42c0 50.667 -22 76 -66 76h-206l-4 4v46zM103.999 849.001c8 -38.667 27.333 -58.002 58 -58.002h130c36.667 0 60 13.333 70 40l2 14v4c0 28.667 -14.667 47.334 -44 56.001l-16 2h-138c-41.333 -5.33301 -62 -24.666 -62 -57.999z" />
    <glyph glyph-name="guillemotleft" unicode="&#xab;" horiz-adv-x="769" 
d="M50 479l342 303h14v-37l-205 -266l205 -266v-37h-14zM363 479l342 303h14v-37l-205 -266l205 -266v-37h-14z" />
    <glyph glyph-name="logicalnot" unicode="&#xac;" horiz-adv-x="940" 
d="M50 767h840v-491l-1 -1h-98v392h-741v100z" />
    <glyph glyph-name="registered" unicode="&#xae;" horiz-adv-x="1574" 
d="M790 1456c96.667 0 190 -18.835 280 -56.502s169.667 -91.167 239 -160.5c68 -67.333 120.833 -146.666 158.5 -237.999s56.5 -185.666 56.5 -282.999c0 -98 -18.833 -192 -56.5 -282s-91.834 -170 -162.501 -240c-70 -70 -149.667 -123.167 -239 -159.5
s-183.666 -54.5 -282.999 -54.5c-97.333 0 -190 18.5 -278 55.5s-167.333 90.5 -238 160.5c-70.667 69.333 -124.5 148.5 -161.5 237.5s-55.5 183.167 -55.5 282.5c0 98.667 18.5 193 55.5 283s90.167 169.333 159.5 238c68 69.333 147.5 122.833 238.5 160.5
s186.5 56.5 286.5 56.5zM307 1197c-63.333 -64 -112.004 -137.168 -146.004 -219.501s-51 -168.833 -51 -259.5c0 -91.333 17 -177.666 51 -258.999s83.333 -154.333 148 -219c65.333 -64 138.333 -113 219 -147s166 -51 256 -51c91.333 0 177.833 16.833 259.5 50.5
s154.834 82.167 219.501 145.5c64.667 65.333 114.334 139.166 149.001 221.499s52 168.5 52 258.5c0 89.333 -17.333 175.833 -52 259.5s-83 156.834 -145 219.501c-64 64 -137.333 113.167 -220 147.5s-168.667 51.5 -258 51.5c-91.333 0 -178.666 -17.167 -261.999 -51.5
s-156.666 -83.5 -219.999 -147.5zM402.996 1131h622.999c76.667 0 141.334 -44 194.001 -132c11.333 -34.667 17 -61 17 -79v-22c0 -92.667 -50.667 -161 -152 -205c-22 -7.33301 -41.667 -11 -59 -11h-149l357 -385v-3h-101l-362 388h-298v-383l-6 -5h-64l-6 5v826z
M472.995 1055v-295h553c50 0 90.333 29 121 87c5.33301 8 10 27.667 14 59c0 64 -34.667 111 -104 141l-25 5z" />
    <glyph glyph-name="macron" unicode="&#xaf;" horiz-adv-x="919" 
d="M869 1168v-114h-819v114h819z" />
    <glyph glyph-name="degree" unicode="&#xb0;" horiz-adv-x="656" 
d="M329 1372c-57.333 0 -106.501 -20.333 -147.501 -61s-61.5 -90 -61.5 -148s20.333 -107 61 -147s90 -60 148 -60s107 20 147 60s60 89 60 147s-20.167 107.333 -60.5 148s-89.166 61 -146.499 61zM328.999 1442c76.667 0 142.002 -27.167 196.002 -81.5
s81 -119.833 81 -196.5c0 -76 -27.333 -141.333 -82 -196s-120.334 -82 -197.001 -82c-78 0 -143.667 27 -197 81s-80 119.667 -80 197s27.167 143 81.5 197s120.166 81 197.499 81z" />
    <glyph glyph-name="plusminus" unicode="&#xb1;" horiz-adv-x="940" 
d="M400 697h-350v140h350v369l1 1h139v-370h349l1 -1v-139h-350v-370h-140v370zM880 197v-114h-819v114h819z" />
    <glyph glyph-name="uni00B2" unicode="&#xb2;" horiz-adv-x="484" 
d="M174 1190l66.002 -0.000976562c86 0 146.667 -39.333 182 -118c8 -20 12 -40 12 -60v-10c0 -62.667 -30 -114.667 -90 -156c-134.667 -117.333 -211.334 -182.666 -230.001 -195.999v-2h316l4 -4v-46l-4 -4h-376l-4 4v66c8.66699 10 107.334 95.333 296.001 256
c21.333 24.667 32 50.667 32 78v14c0 51.333 -28.667 89.333 -86 114c-18.667 5.33301 -39.334 8 -62.001 8h-66c-40 -4.66699 -60 -24.667 -60 -60l-2 -2h-48l-4 4v6c0 46 26 80 78 102c13.333 4 28.666 6 45.999 6z" />
    <glyph glyph-name="uni00B3" unicode="&#xb3;" horiz-adv-x="482" 
d="M156 1182l172.001 0.000976562c40.667 0 72.667 -23.333 96 -70c5.33301 -10.667 8 -22 8 -34v-98c0 -28.667 -12.667 -55.334 -38 -80.001c25.333 -25.333 38 -50.666 38 -75.999v-134c0 -40.667 -23.333 -72.667 -70 -96c-10.667 -5.33301 -22 -8 -34 -8h-174
c-40.667 0 -72.667 23.333 -96 70c-5.33301 11.333 -8 22.666 -8 33.999v8l4 4h46c2.66699 -0.666992 6.66699 -12 12 -34c13.333 -18.667 32.666 -28 57.999 -28h142c44 0 66 25.333 66 76v82c0 49.333 -19.333 74 -58 74h-194l-4 4v48l4 4h192c40 0 60 24 60 72v52
c0 50.667 -22 76 -66 76h-142c-30 0 -50.667 -12.667 -62 -38c-2 -16 -4.66699 -24 -8 -24h-46l-4 4v8c0 45.333 28 79.333 84 102z" />
    <glyph glyph-name="acute" unicode="&#xb4;" horiz-adv-x="286" 
d="M194 1283l42 -66c0 -12 -54 -44 -162 -96l-24 48z" />
    <glyph glyph-name="mu" unicode="&#xb5;" horiz-adv-x="958" 
d="M908 1062v-1062h-161v126c-34.667 -53.333 -69 -90 -103 -110c-46.667 -27.333 -101 -41 -163 -41c-55.333 0 -104.333 11 -147 33c-32 16.667 -67.333 49.667 -106 99v-514h-178v1469h178v-450c0 -163.333 8.66699 -269.166 26 -317.499s45.5 -86.5 84.5 -114.5
s83.833 -42 134.5 -42c53.333 0 101 14.667 143 44s71.667 67.166 89 113.499s26 150.833 26 313.5v453h177z" />
    <glyph glyph-name="paragraph" unicode="&#xb6;" horiz-adv-x="936" 
d="M886 1435l-0.000976562 -70h-127v-1365h-82v1365h-166v-1365h-84v738c-116 5.33301 -207.833 39.5 -275.5 102.5s-101.5 144.833 -101.5 245.5c0 104.667 35.833 189 107.5 253s166.834 96 285.501 96h443z" />
    <glyph glyph-name="periodcentered" unicode="&#xb7;" horiz-adv-x="350" 
d="M266 811v-197h-190v197h190z" />
    <glyph glyph-name="periodcentered" unicode="&#x2219;" horiz-adv-x="350" 
d="M266 811v-197h-190v197h190z" />
    <glyph glyph-name="cedilla" unicode="&#xb8;" horiz-adv-x="508" 
d="M50 -290c56.667 -34.667 107.333 -52 152 -52c44 0 75.5 7.16699 94.5 21.5s28.5 36.5 28.5 66.5s-16.333 51.333 -49 64c-26.667 10.667 -60.667 16 -102 16c-10.667 0 -22 -0.666992 -34 -2l48 176h63l-37 -104c21.333 2.66699 42 4.33398 62 5.00098
c57.333 0 102 -13.5 134 -40.5s48 -64.833 48 -113.5c0 -50.667 -19.5 -90.834 -58.5 -120.501s-92.5 -44.5 -160.5 -44.5c-72.667 0 -135.667 10.667 -189 32v96z" />
    <glyph glyph-name="uni00B9" unicode="&#xb9;" horiz-adv-x="202" 
d="M54 1203h94l4 -4v-588l-4 -4h-46l-4 4v538h-44l-4 4v46z" />
    <glyph glyph-name="ordmasculine" unicode="&#xba;" horiz-adv-x="397" 
d="M131 1192h134c38 0 65 -22.333 81 -67l1 -16v-298c0 -38 -22.333 -65 -67 -81l-15 -2h-134c-36.667 0 -63 22.333 -79 67l-2 16v298c0 38 22.333 65 67 81zM92 1094l-0.000976562 -276h2l190 326h-2c-7.33301 4 -15.666 6 -24.999 6h-117c-32 0 -48 -18.667 -48 -56z
M303.999 1092l-187 -317l23 -5h117c32 0 48 18.667 48 56v266h-1z" />
    <glyph glyph-name="guillemotright" unicode="&#xbb;" horiz-adv-x="769" 
d="M64 176h-14v37l205 266l-205 266v37h14l342 -303zM377 176h-14v37l205 266l-205 266v37h14l342 -303z" />
    <glyph glyph-name="onequarter" unicode="&#xbc;" horiz-adv-x="1124" 
d="M50 -29l940 1461h84l-938 -1461h-86zM730 598h50l4 -4l-70 -264h244v264l4 4h46l4 -4v-264h22l4 -4v-48l-4 -4h-22v-268l-4 -4h-46l-4 4v268h-298l-4 4v48c46 181.333 70.667 272 74 272zM139 1443h94l4 -4v-588l-4 -4h-46l-4 4v538h-44l-4 4v46z" />
    <glyph glyph-name="onehalf" unicode="&#xbd;" horiz-adv-x="1182" 
d="M50 -29l940 1461h84l-938 -1461h-86zM872 667l66.002 -0.000976562c86 0 146.667 -39.333 182 -118c8 -20 12 -40 12 -60v-10c0 -62.667 -30 -114.667 -90 -156c-134.667 -117.333 -211.334 -182.666 -230.001 -195.999v-2h316l4 -4v-46l-4 -4h-376l-4 4v66
c8.66699 10 107.334 95.333 296.001 256c21.333 24.667 32 50.667 32 78v14c0 51.333 -28.667 89.333 -86 114c-18.667 5.33301 -39.334 8 -62.001 8h-66c-40 -4.66699 -60 -24.667 -60 -60l-2 -2h-48l-4 4v6c0 46 26 80 78 102c13.333 4 28.666 6 45.999 6zM139.002 1443
h94l4 -4v-588l-4 -4h-46l-4 4v538h-44l-4 4v46z" />
    <glyph glyph-name="threequarters" unicode="&#xbe;" horiz-adv-x="1124" 
d="M50 -29l940 1461h84l-938 -1461h-86zM156 1402l172.001 0.000976562c40.667 0 72.667 -23.333 96 -70c5.33301 -10.667 8 -22 8 -34v-98c0 -28.667 -12.667 -55.334 -38 -80.001c25.333 -25.333 38 -50.666 38 -75.999v-134c0 -40.667 -23.333 -72.667 -70 -96
c-10.667 -5.33301 -22 -8 -34 -8h-174c-40.667 0 -72.667 23.333 -96 70c-5.33301 11.333 -8 22.666 -8 33.999v8l4 4h46c2.66699 -0.666992 6.66699 -12 12 -34c13.333 -18.667 32.666 -28 57.999 -28h142c44 0 66 25.333 66 76v82c0 49.333 -19.333 74 -58 74h-194l-4 4
v48l4 4h192c40 0 60 24 60 72v52c0 50.667 -22 76 -66 76h-142c-30 0 -50.667 -12.667 -62 -38c-2 -16 -4.66699 -24 -8 -24h-46l-4 4v8c0 45.333 28 79.333 84 102zM730.001 598.001h50l4 -4l-70 -264h244v264l4 4h46l4 -4v-264h22l4 -4v-48l-4 -4h-22v-268l-4 -4h-46l-4 4
v268h-298l-4 4v48c46 181.333 70.667 272 74 272z" />
    <glyph glyph-name="questiondown" unicode="&#xbf;" horiz-adv-x="895" 
d="M552 -1l-115.999 -0.000976562c-192.667 0 -314 94.667 -364 284l-4 56v24c0 132 69.333 233.333 208 304c26 16 91.333 28 196 36c50.667 28 76 62.667 76 104v228c0 14 4 22 12 24h84l8 -8v-224c0 -111.333 -57.333 -187.333 -172 -228c-90 0 -168.667 -24 -236 -72
c-48 -54.667 -72 -110.667 -72 -168v-12c0 -114 56 -190 168 -228c30 -10.667 70 -16 120 -16h92c65.333 0 106.666 21.333 123.999 64c6 34.667 11.333 52 16 52h88l8 -8v-8c0 -93.333 -53.333 -158.666 -160 -195.999zM656.001 1091h-112l-8 8v84l8 8h112l8 -8v-84z" />
    <glyph glyph-name="Agrave" unicode="&#xc0;" horiz-adv-x="1636" 
d="M818 1192l768 -1188l-4 -4h-144l-340 516h-568c-187.333 -302 -298 -474 -332 -516h-140l-8 8zM814 956l-208 -328h420v4zM842 1265l-24 -48c-108 52 -162 84 -162 96l42 66z" />
    <glyph glyph-name="Aacute" unicode="&#xc1;" horiz-adv-x="1636" 
d="M818 1192l768 -1188l-4 -4h-144l-340 516h-568c-187.333 -302 -298 -474 -332 -516h-140l-8 8zM814 956l-208 -328h420v4zM1020 1359l42 -66c0 -12 -54 -44 -162 -96l-24 48z" />
    <glyph glyph-name="Acircumflex" unicode="&#xc2;" horiz-adv-x="1636" 
d="M818 1192l768 -1188l-4 -4h-144l-340 516h-568c-187.333 -302 -298 -474 -332 -516h-140l-8 8zM814 956l-208 -328h420v4zM812 1373l4 6l144 -114l-24 -48c-51.333 24.667 -90.333 45 -117 61c-27.333 -16 -68.333 -37.333 -123 -64l-24 48z" />
    <glyph glyph-name="Atilde" unicode="&#xc3;" horiz-adv-x="1636" 
d="M818 1192l768 -1188l-4 -4h-144l-340 516h-568c-187.333 -302 -298 -474 -332 -516h-140l-8 8zM814 956l-208 -328h420v4zM858 1231c-38 18.667 -67.668 34.333 -89.001 47c-27.333 -16 -68.333 -37.333 -123 -64l-24 48l140 111l4 6l40 -32
c40.667 -20 72.334 -36.667 95.001 -50c26.667 16 65.667 36.333 117 61l24 -48l-144 -114l-4 6z" />
    <glyph glyph-name="Adieresis" unicode="&#xc4;" horiz-adv-x="1636" 
d="M818 1192l768 -1188l-4 -4h-144l-340 516h-568c-187.333 -302 -298 -474 -332 -516h-140l-8 8zM814 956l-208 -328h420v4zM763 1410v-136h-106v136h106zM975 1410v-137h-106v137h106z" />
    <glyph glyph-name="Aring" unicode="&#xc5;" horiz-adv-x="1636" 
d="M818 1192l768 -1188l-4 -4h-144l-340 516h-568c-187.333 -302 -298 -474 -332 -516h-140l-8 8zM814 956l-208 -328h420v4zM905 1463.5c25.333 -25 38 -55.5 38 -91.5c0 -35.333 -12.667 -65.666 -38 -90.999s-55.666 -38 -90.999 -38c-36 0 -66.5 12.667 -91.5 38
s-37.5 55.666 -37.5 90.999c0 36 12.5 66.5 37.5 91.5s55.5 37.5 91.5 37.5c35.333 0 65.666 -12.5 90.999 -37.5zM814 1434c-17.333 0 -32 -6 -44 -18s-18 -26.667 -18 -44c0 -16.667 6 -31.167 18 -43.5s26.667 -18.5 44 -18.5c16.667 0 31.167 6.16699 43.5 18.5
s18.5 26.833 18.5 43.5c0 17.333 -6.16699 32 -18.5 44s-26.833 18 -43.5 18z" />
    <glyph glyph-name="AE" unicode="&#xc6;" horiz-adv-x="2066" 
d="M824 935l-10 15l-208 -328h218v313zM824 510h-294c-187.333 -302 -298 -474 -332 -516h-140l-8 8l768 1184l14 6h1176l8 -8v-92l-8 -8h-1076v-462h740l8 -8v-96l-8 -8h-740v-402h1076l8 -8v-92l-8 -8h-1176l-8 8v502z" />
    <glyph glyph-name="Ccedilla" unicode="&#xc7;" horiz-adv-x="1424" 
d="M912 0l6.99902 -10.999c0 -18 -116.333 -101.333 -349 -250l-36 72l211 189h-127c-174 0 -327.333 84 -460 252c-72 103.333 -108 212.666 -108 327.999v44c0 174.667 84 328 252 460c104 72 213.333 108 328 108h736l8 -8v-100l-8 -8h-728
c-171.333 0 -308.666 -82.667 -411.999 -248c-40 -72 -60 -150.667 -60 -236v-4c0 -188 97.333 -333.333 292 -436c64 -24 128 -36 192 -36h716l8 -8v-100l-8 -8h-454z" />
    <glyph glyph-name="Egrave" unicode="&#xc8;" horiz-adv-x="1292" 
d="M58 1192h1176l8 -8v-92l-8 -8h-1076v-448h740l8 -8v-96l-8 -8h-740v-416h1076l8 -8v-92l-8 -8h-1176l-8 8v1176zM702 1265l-24 -48c-108 52 -162 84 -162 96l42 66z" />
    <glyph glyph-name="Eacute" unicode="&#xc9;" horiz-adv-x="1292" 
d="M660 1379l42 -66c0 -12 -54 -44 -162 -96l-24 48zM58 1192h1176l8 -8v-92l-8 -8h-1076v-448h740l8 -8v-96l-8 -8h-740v-416h1076l8 -8v-92l-8 -8h-1176l-8 8v1176z" />
    <glyph glyph-name="Ecircumflex" unicode="&#xca;" horiz-adv-x="1292" 
d="M662 1373l4 6l144 -114l-24 -48c-51.333 24.667 -90.333 45 -117 61c-27.333 -16 -68.333 -37.333 -123 -64l-24 48zM58 1192h1176l8 -8v-92l-8 -8h-1076v-448h740l8 -8v-96l-8 -8h-740v-416h1076l8 -8v-92l-8 -8h-1176l-8 8v1176z" />
    <glyph glyph-name="Edieresis" unicode="&#xcb;" horiz-adv-x="1292" 
d="M58 1192h1176l8 -8v-92l-8 -8h-1076v-448h740l8 -8v-96l-8 -8h-740v-416h1076l8 -8v-92l-8 -8h-1176l-8 8v1176zM583 1410v-136h-106v136h106zM795 1410v-137h-106v137h106z" />
    <glyph glyph-name="Igrave" unicode="&#xcc;" horiz-adv-x="1264" 
d="M702 1265l-24 -48c-108 52 -162 84 -162 96l42 66zM58 1192h1148l8 -8v-92l-8 -8h-520v-976h520l8 -8v-92l-8 -8h-1148l-8 8v92l8 8h520v976h-520l-8 8v92z" />
    <glyph glyph-name="Iacute" unicode="&#xcd;" horiz-adv-x="1264" 
d="M58 1192h1148l8 -8v-92l-8 -8h-520v-976h520l8 -8v-92l-8 -8h-1148l-8 8v92l8 8h520v976h-520l-8 8v92zM660 1379l42 -66c0 -12 -54 -44 -162 -96l-24 48z" />
    <glyph glyph-name="Icircumflex" unicode="&#xce;" horiz-adv-x="1264" 
d="M58 1192h1148l8 -8v-92l-8 -8h-520v-976h520l8 -8v-92l-8 -8h-1148l-8 8v92l8 8h520v976h-520l-8 8v92zM632 1373l4 6l144 -114l-24 -48c-51.333 24.667 -90.333 45 -117 61c-27.333 -16 -68.333 -37.333 -123 -64l-24 48z" />
    <glyph glyph-name="Idieresis" unicode="&#xcf;" horiz-adv-x="1264" 
d="M58 1192h1148l8 -8v-92l-8 -8h-520v-976h520l8 -8v-92l-8 -8h-1148l-8 8v92l8 8h520v976h-520l-8 8v92zM593 1410v-136h-106v136h106zM805 1410v-137h-106v137h106z" />
    <glyph glyph-name="Eth" unicode="&#xd0;" horiz-adv-x="1581" 
d="M287 523v-407h664c182.667 0 324 93.333 424 280c26.667 64 40 124 40 180v44c0 152.667 -76 282 -228 388c-76 45.333 -154.667 68 -236 68h-664v-432h119v-121h-119zM179 644v540.001l8 8h772c203.333 0 370 -101.333 500 -304c48 -96 72 -184 72 -264v-56
c0 -180.667 -89.333 -339.334 -268 -476.001c-106 -61.333 -203.333 -92 -292 -92h-784l-8 8v515h-129v121h129z" />
    <glyph glyph-name="Ntilde" unicode="&#xd1;" horiz-adv-x="1248" 
d="M668 1231c-38 18.667 -67.668 34.333 -89.001 47c-27.333 -16 -68.333 -37.333 -123 -64l-24 48l140 111l4 6l40 -32c40.667 -20 72.334 -36.667 95.001 -50c26.667 16 65.667 36.333 117 61l24 -48l-144 -114l-4 6zM57.999 1192h100l932 -1064v1056l8 8h92l8 -8v-1176
l-8 -8h-136l-896 1024v-1016l-8 -8h-92l-8 8v1176z" />
    <glyph glyph-name="Ograve" unicode="&#xd2;" horiz-adv-x="1448" 
d="M614 1192h220c176.667 0 332.667 -88 468 -264c64 -109.333 96 -210.666 96 -303.999v-56c0 -152.667 -68 -294 -204 -424c-116.667 -96 -236.667 -144 -360 -144h-220c-176.667 0 -332.667 88 -468 264c-64 109.333 -96 210.666 -96 303.999v56
c0 164.667 76 312.667 228 444c111.333 82.667 223.333 124 336 124zM166 616l0.000976562 -24c0 -204.667 104 -354 312 -448c56.667 -18.667 108.667 -28 156 -28h180c186 0 328.667 94.667 428 284c26.667 59.333 40 123.333 40 192v24c0 158 -80 291.333 -240 400
c-80 40 -156 60 -228 60h-180c-182.667 0 -325.334 -93.333 -428.001 -280c-26.667 -70 -40 -130 -40 -180zM842.001 1265l-24 -48c-108 52 -162 84 -162 96l42 66z" />
    <glyph glyph-name="Oacute" unicode="&#xd3;" horiz-adv-x="1448" 
d="M614 1192h220c176.667 0 332.667 -88 468 -264c64 -109.333 96 -210.666 96 -303.999v-56c0 -152.667 -68 -294 -204 -424c-116.667 -96 -236.667 -144 -360 -144h-220c-176.667 0 -332.667 88 -468 264c-64 109.333 -96 210.666 -96 303.999v56
c0 164.667 76 312.667 228 444c111.333 82.667 223.333 124 336 124zM166 616l0.000976562 -24c0 -204.667 104 -354 312 -448c56.667 -18.667 108.667 -28 156 -28h180c186 0 328.667 94.667 428 284c26.667 59.333 40 123.333 40 192v24c0 158 -80 291.333 -240 400
c-80 40 -156 60 -228 60h-180c-182.667 0 -325.334 -93.333 -428.001 -280c-26.667 -70 -40 -130 -40 -180zM800.001 1359l42 -66c0 -12 -54 -44 -162 -96l-24 48z" />
    <glyph glyph-name="Ocircumflex" unicode="&#xd4;" horiz-adv-x="1448" 
d="M702 1373l4 6l144 -114l-24 -48c-51.333 24.667 -90.333 45 -117 61c-27.333 -16 -68.333 -37.333 -123 -64l-24 48zM614 1192h220c176.667 0 332.667 -88 468 -264c64 -109.333 96 -210.666 96 -303.999v-56c0 -152.667 -68 -294 -204 -424
c-116.667 -96 -236.667 -144 -360 -144h-220c-176.667 0 -332.667 88 -468 264c-64 109.333 -96 210.666 -96 303.999v56c0 164.667 76 312.667 228 444c111.333 82.667 223.333 124 336 124zM166 616l0.000976562 -24c0 -204.667 104 -354 312 -448
c56.667 -18.667 108.667 -28 156 -28h180c186 0 328.667 94.667 428 284c26.667 59.333 40 123.333 40 192v24c0 158 -80 291.333 -240 400c-80 40 -156 60 -228 60h-180c-182.667 0 -325.334 -93.333 -428.001 -280c-26.667 -70 -40 -130 -40 -180z" />
    <glyph glyph-name="Otilde" unicode="&#xd5;" horiz-adv-x="1448" 
d="M728 1231c-38 18.667 -67.668 34.333 -89.001 47c-27.333 -16 -68.333 -37.333 -123 -64l-24 48l140 111l4 6l40 -32c40.667 -20 72.334 -36.667 95.001 -50c26.667 16 65.667 36.333 117 61l24 -48l-144 -114l-4 6zM613.999 1192h220c176.667 0 332.667 -88 468 -264
c64 -109.333 96 -210.666 96 -303.999v-56c0 -152.667 -68 -294 -204 -424c-116.667 -96 -236.667 -144 -360 -144h-220c-176.667 0 -332.667 88 -468 264c-64 109.333 -96 210.666 -96 303.999v56c0 164.667 76 312.667 228 444c111.333 82.667 223.333 124 336 124z
M165.999 615.999l0.000976562 -24c0 -204.667 104 -354 312 -448c56.667 -18.667 108.667 -28 156 -28h180c186 0 328.667 94.667 428 284c26.667 59.333 40 123.333 40 192v24c0 158 -80 291.333 -240 400c-80 40 -156 60 -228 60h-180
c-182.667 0 -325.334 -93.333 -428.001 -280c-26.667 -70 -40 -130 -40 -180z" />
    <glyph glyph-name="Odieresis" unicode="&#xd6;" horiz-adv-x="1448" 
d="M614 1192h220c176.667 0 332.667 -88 468 -264c64 -109.333 96 -210.666 96 -303.999v-56c0 -152.667 -68 -294 -204 -424c-116.667 -96 -236.667 -144 -360 -144h-220c-176.667 0 -332.667 88 -468 264c-64 109.333 -96 210.666 -96 303.999v56
c0 164.667 76 312.667 228 444c111.333 82.667 223.333 124 336 124zM166 616l0.000976562 -24c0 -204.667 104 -354 312 -448c56.667 -18.667 108.667 -28 156 -28h180c186 0 328.667 94.667 428 284c26.667 59.333 40 123.333 40 192v24c0 158 -80 291.333 -240 400
c-80 40 -156 60 -228 60h-180c-182.667 0 -325.334 -93.333 -428.001 -280c-26.667 -70 -40 -130 -40 -180zM663.001 1410v-136h-106v136h106zM875.001 1410v-137h-106v137h106z" />
    <glyph glyph-name="multiply" unicode="&#xd7;" horiz-adv-x="792" 
d="M396 618l-247 -247l-99 99l247 247l-247 248l99 98l247 -247l248 247l98 -99l-247 -247l247 -247l-99 -99z" />
    <glyph glyph-name="Oslash" unicode="&#xd8;" horiz-adv-x="1518" 
d="M1101 972c-18.667 15.333 -38.332 30 -58.999 44c-80 40 -156 60 -228 60h-180c-182.667 0 -325.334 -93.333 -428.001 -280c-26.667 -70 -40 -130 -40 -180v-24c0 -145.333 52.667 -263 158 -353zM1172 903l-766 -722.001c22.667 -13.333 46.667 -25.666 72 -36.999
c56.667 -18.667 108.667 -28 156 -28h180c186 0 328.667 94.667 428 284c26.667 59.333 40 123.333 40 192v24c0 107.333 -36.667 203 -110 287zM239.002 159.999c-32 30 -63 64.666 -93 103.999c-64 109.333 -96 210.666 -96 303.999v56c0 164.667 76 312.667 228 444
c111.333 82.667 223.333 124 336 124h220c128 0 245.333 -46.333 352 -139l138 130h144l-212 -200c16 -17.333 31.333 -35.666 46 -54.999c64 -109.333 96 -210.666 96 -303.999v-56c0 -152.667 -68 -294 -204 -424c-116.667 -96 -236.667 -144 -360 -144h-220
c-106.667 0 -205.667 32 -297 96l-111 -104h-144z" />
    <glyph glyph-name="Ugrave" unicode="&#xd9;" horiz-adv-x="1268" 
d="M702 1265l-24 -48c-108 52 -162 84 -162 96l42 66zM58 1192h96.001l8 -8v-544c0 -246.667 98.667 -410.667 296 -492c31.333 -17.333 90 -29.333 176 -36c180 0 321.333 88 424 264c32 64 48 150.667 48 260v548l8 8h96l8 -8v-628c0 -162 -77.333 -308.667 -232 -440
c-106.667 -77.333 -218.667 -116 -336 -116h-44c-162.667 -0 -309.334 77.333 -440.001 232c-77.333 106.667 -116 218.667 -116 336v616z" />
    <glyph glyph-name="Uacute" unicode="&#xda;" horiz-adv-x="1268" 
d="M58 1192h96.001l8 -8v-544c0 -246.667 98.667 -410.667 296 -492c31.333 -17.333 90 -29.333 176 -36c180 0 321.333 88 424 264c32 64 48 150.667 48 260v548l8 8h96l8 -8v-628c0 -162 -77.333 -308.667 -232 -440c-106.667 -77.333 -218.667 -116 -336 -116h-44
c-162.667 -0 -309.334 77.333 -440.001 232c-77.333 106.667 -116 218.667 -116 336v616zM670.001 1379l42 -66c0 -12 -54 -44 -162 -96l-24 48z" />
    <glyph glyph-name="Ucircumflex" unicode="&#xdb;" horiz-adv-x="1268" 
d="M58 1192h96.001l8 -8v-544c0 -246.667 98.667 -410.667 296 -492c31.333 -17.333 90 -29.333 176 -36c180 0 321.333 88 424 264c32 64 48 150.667 48 260v548l8 8h96l8 -8v-628c0 -162 -77.333 -308.667 -232 -440c-106.667 -77.333 -218.667 -116 -336 -116h-44
c-162.667 -0 -309.334 77.333 -440.001 232c-77.333 106.667 -116 218.667 -116 336v616zM632.001 1373l4 6l144 -114l-24 -48c-51.333 24.667 -90.333 45 -117 61c-27.333 -16 -68.333 -37.333 -123 -64l-24 48z" />
    <glyph glyph-name="Udieresis" unicode="&#xdc;" horiz-adv-x="1268" 
d="M58 1192h96.001l8 -8v-544c0 -246.667 98.667 -410.667 296 -492c31.333 -17.333 90 -29.333 176 -36c180 0 321.333 88 424 264c32 64 48 150.667 48 260v548l8 8h96l8 -8v-628c0 -162 -77.333 -308.667 -232 -440c-106.667 -77.333 -218.667 -116 -336 -116h-44
c-162.667 -0 -309.334 77.333 -440.001 232c-77.333 106.667 -116 218.667 -116 336v616zM583.001 1410v-136h-106v136h106zM795.001 1410v-137h-106v137h106z" />
    <glyph glyph-name="Yacute" unicode="&#xdd;" horiz-adv-x="1244" 
d="M50 1192l136 -0.000976562l436 -508l436 508h136v-4l-516 -616v-564l-8 -8h-96l-8 8v556c0 12.667 -40 63.334 -120 152.001l-396 472v4zM700 1379l42 -66c0 -12 -54 -44 -162 -96l-24 48z" />
    <glyph glyph-name="Thorn" unicode="&#xde;" horiz-adv-x="1248" 
d="M62 1183l137.001 -0.000976562l12 -9v-400h6c47.333 22.667 113.333 34 198 34h203c294 0 485.333 -105 574 -315l6 -68v-26c0 -157.333 -123.667 -276.666 -371 -357.999c-62.667 -11.333 -114.334 -17 -155.001 -17h-329c-41.333 4.66699 -85.333 14.667 -132 30v-410
l-12 -14h-137l-12 9v1535zM211.001 534.999l0.000976562 -234.001c0 -69.333 24 -114.666 72 -135.999c27.333 -14.667 53.333 -22 78 -22h311c151.333 0 265 61.333 341 184c12 22.667 18 46.667 18 72v30c0 104.667 -80 184 -240 238
c-40.667 14.667 -96.334 22 -167.001 22h-233c-120 0 -180 -51.333 -180 -154z" />
    <glyph glyph-name="germandbls" unicode="&#xdf;" horiz-adv-x="1134" 
d="M50 0l-0.000976562 998.998c0 122 14.833 215.833 44.5 281.5s79.167 117.167 148.5 154.5s147.333 56 234 56c115.333 0 206 -28.833 272 -86.5s99 -124.5 99 -200.5c0 -34 -6 -69 -18 -105s-33.333 -80.833 -64 -134.5s-50 -91 -58 -112s-12 -39.5 -12 -55.5
c0 -21.333 7.33301 -42.333 22 -63c14 -21.333 54.333 -53.666 121 -96.999c90.667 -59.333 151 -107 181 -143c42.667 -51.333 64 -112 64 -182c0 -92.667 -34.167 -172 -102.5 -238s-155.833 -99 -262.5 -99c-84 0 -157.667 22.5 -221 67.5
s-110.666 102.833 -141.999 173.5l155 72c33.333 -62 66.666 -105 99.999 -129s68.333 -36 105 -36c50.667 0 94 17.333 130 52s54 75.334 54 122.001c0 37.333 -10.667 69.333 -32 96c-14 17.333 -51.333 46.666 -112 87.999c-110.667 76 -179 133 -205 171
c-26.667 38 -40 77 -40 117c0 26 4.5 52.333 13.5 79s30.667 69.334 65 128.001s56.833 102.667 67.5 132s16 55.333 16 78c0 41.333 -18.167 77.833 -54.5 109.5s-84.833 47.5 -145.5 47.5c-71.333 0 -129.666 -22 -174.999 -66s-68 -139.333 -68 -286v-991h-180z" />
    <glyph glyph-name="agrave" unicode="&#xe0;" horiz-adv-x="876" 
d="M591 890l-24 -48c-108 52 -162 84 -162 96l42 66zM174 736h440.001c85.333 0 150.666 -46.667 195.999 -140c10.667 -22 16 -44.667 16 -68v-520l-8 -8h-92l-8 8v52c-46.667 -40 -92 -60 -136 -60h-324c-81.333 0 -145.333 46.667 -192 140c-10.667 22 -16 44.667 -16 68
v28c0 96 56 165.333 168 208l68 8h264c64 0 120 -20 168 -60v84c0 101.333 -44 152 -132 152h-412l-8 8v92zM158.001 224c15.333 -77.333 54 -115.999 116 -115.999h260c74 0 120.667 26.667 140 80l4 28v8c0 57.333 -29.333 94.666 -88 111.999l-32 4h-276
c-82.667 -10 -124 -48.667 -124 -116z" />
    <glyph glyph-name="aacute" unicode="&#xe1;" horiz-adv-x="876" 
d="M174 736h440.001c85.333 0 150.666 -46.667 195.999 -140c10.667 -22 16 -44.667 16 -68v-520l-8 -8h-92l-8 8v52c-46.667 -40 -92 -60 -136 -60h-324c-81.333 0 -145.333 46.667 -192 140c-10.667 22 -16 44.667 -16 68v28c0 96 56 165.333 168 208l68 8h264
c64 0 120 -20 168 -60v84c0 101.333 -44 152 -132 152h-412l-8 8v92zM158.001 224c15.333 -77.333 54 -115.999 116 -115.999h260c74 0 120.667 26.667 140 80l4 28v8c0 57.333 -29.333 94.666 -88 111.999l-32 4h-276c-82.667 -10 -124 -48.667 -124 -116zM569.001 998.001
l42 -66c0 -12 -54 -44 -162 -96l-24 48z" />
    <glyph glyph-name="acircumflex" unicode="&#xe2;" horiz-adv-x="876" 
d="M174 736h440.001c85.333 0 150.666 -46.667 195.999 -140c10.667 -22 16 -44.667 16 -68v-520l-8 -8h-92l-8 8v52c-46.667 -40 -92 -60 -136 -60h-324c-81.333 0 -145.333 46.667 -192 140c-10.667 22 -16 44.667 -16 68v28c0 96 56 165.333 168 208l68 8h264
c64 0 120 -20 168 -60v84c0 101.333 -44 152 -132 152h-412l-8 8v92zM158.001 224c15.333 -77.333 54 -115.999 116 -115.999h260c74 0 120.667 26.667 140 80l4 28v8c0 57.333 -29.333 94.666 -88 111.999l-32 4h-276c-82.667 -10 -124 -48.667 -124 -116zM470.001 998.001
l4 6l144 -114l-24 -48c-51.333 24.667 -90.333 45 -117 61c-27.333 -16 -68.333 -37.333 -123 -64l-24 48z" />
    <glyph glyph-name="atilde" unicode="&#xe3;" horiz-adv-x="876" 
d="M174 736h440.001c85.333 0 150.666 -46.667 195.999 -140c10.667 -22 16 -44.667 16 -68v-520l-8 -8h-92l-8 8v52c-46.667 -40 -92 -60 -136 -60h-324c-81.333 0 -145.333 46.667 -192 140c-10.667 22 -16 44.667 -16 68v28c0 96 56 165.333 168 208l68 8h264
c64 0 120 -20 168 -60v84c0 101.333 -44 152 -132 152h-412l-8 8v92zM158.001 224c15.333 -77.333 54 -115.999 116 -115.999h260c74 0 120.667 26.667 140 80l4 28v8c0 57.333 -29.333 94.666 -88 111.999l-32 4h-276c-82.667 -10 -124 -48.667 -124 -116zM516.001 866.001
c-38 18.667 -67.668 34.333 -89.001 47c-27.333 -16 -68.333 -37.333 -123 -64l-24 48l140 111l4 6l40 -32c40.667 -20 72.334 -36.667 95.001 -50c26.667 16 65.667 36.333 117 61l24 -48l-144 -114l-4 6z" />
    <glyph glyph-name="adieresis" unicode="&#xe4;" horiz-adv-x="876" 
d="M174 736h440.001c85.333 0 150.666 -46.667 195.999 -140c10.667 -22 16 -44.667 16 -68v-520l-8 -8h-92l-8 8v52c-46.667 -40 -92 -60 -136 -60h-324c-81.333 0 -145.333 46.667 -192 140c-10.667 22 -16 44.667 -16 68v28c0 96 56 165.333 168 208l68 8h264
c64 0 120 -20 168 -60v84c0 101.333 -44 152 -132 152h-412l-8 8v92zM158.001 224c15.333 -77.333 54 -115.999 116 -115.999h260c74 0 120.667 26.667 140 80l4 28v8c0 57.333 -29.333 94.666 -88 111.999l-32 4h-276c-82.667 -10 -124 -48.667 -124 -116zM403.001 982.001
v-136h-106v136h106zM616.001 982.001v-137h-106v137h106z" />
    <glyph glyph-name="aring" unicode="&#xe5;" horiz-adv-x="876" 
d="M174 736h440.001c85.333 0 150.666 -46.667 195.999 -140c10.667 -22 16 -44.667 16 -68v-520l-8 -8h-92l-8 8v52c-46.667 -40 -92 -60 -136 -60h-324c-81.333 0 -145.333 46.667 -192 140c-10.667 22 -16 44.667 -16 68v28c0 96 56 165.333 168 208l68 8h264
c64 0 120 -20 168 -60v84c0 101.333 -44 152 -132 152h-412l-8 8v92zM158.001 224c15.333 -77.333 54 -115.999 116 -115.999h260c74 0 120.667 26.667 140 80l4 28v8c0 57.333 -29.333 94.666 -88 111.999l-32 4h-276c-82.667 -10 -124 -48.667 -124 -116zM542.001 985.501
c25.333 -25 38 -55.5 38 -91.5c0 -35.333 -12.667 -65.666 -38 -90.999s-55.666 -38 -90.999 -38c-36 0 -66.5 12.667 -91.5 38s-37.5 55.666 -37.5 90.999c0 36 12.5 66.5 37.5 91.5s55.5 37.5 91.5 37.5c35.333 0 65.666 -12.5 90.999 -37.5zM451.001 956.001
c-17.333 0 -32 -6 -44 -18s-18 -26.667 -18 -44c0 -16.667 6 -31.167 18 -43.5s26.667 -18.5 44 -18.5s32 6.16699 44 18.5s18 26.833 18 43.5c0 17.333 -6 32 -18 44s-26.667 18 -44 18z" />
    <glyph glyph-name="ae" unicode="&#xe6;" horiz-adv-x="1547" 
d="M837 392l432.001 0.000976562c77.333 9.33301 116 46.666 116 111.999l4 4c0 62 -34.667 100.667 -104 116h-204c-106.667 0 -185.334 -61.333 -236.001 -184zM158.001 225.001c15.333 -77.333 54 -115.999 116 -115.999h260c74 0 120.667 26.667 140 80l4 28v8
c0 57.333 -29.333 94.666 -88 111.999l-32 4h-276c-82.667 -10 -124 -48.667 -124 -116zM802.001 100.002c-102.667 -66 -175.998 -99.001 -219.998 -99.001h-324c-81.333 0 -145.333 46.667 -192 140c-10.667 22 -16 44.667 -16 68v28c0 96 56 165.333 168 208l68 8h264
c64 0 120 -20 168 -60v84c0 101.333 -44 152 -132 152h-412l-8 8v92l8 8h440c84 0 148.667 -45 194 -135c31.333 36 71.666 68.667 120.999 98c52 24 101.333 36 148 36h212c80.667 0 144.667 -46.667 192 -140c10.667 -22 16 -44.667 16 -68v-32
c0 -94 -54.667 -163.333 -164 -208l-72 -8h-408c4 -25.333 25.333 -58.666 64 -99.999c40 -48 125.333 -72 256 -72h256l8 -8v-92l-8 -8h-352c-98.667 0 -190.334 33.333 -275.001 100z" />
    <glyph glyph-name="ccedilla" unicode="&#xe7;" 
d="M397 0c-127.333 2 -231.001 70.001 -311.001 204.001c-24 52 -36 101.333 -36 148v32c0 129.333 68 234.666 204 315.999c52 24 101.333 36 148 36h412l8 -8v-96l-8 -8h-408c-106 0 -183.333 -58.667 -232 -176c-8 -21.333 -12 -44 -12 -68v-24
c0 -101.333 54.667 -177.333 164 -228c26.667 -10.667 53.334 -16 80.001 -16h408l8 -8v-96l-8 -8h-250l7 -11c0 -18 -81 -66 -243 -144l-36 72z" />
    <glyph glyph-name="egrave" unicode="&#xe8;" 
d="M402 736h212c80.667 0 144.667 -46.667 192 -140c10.667 -22 16 -44.667 16 -68v-32c0 -94 -54.667 -163.333 -164 -208l-72 -8h-408c4 -25.333 25.333 -58.666 64 -99.999c40 -48 125.333 -72 256 -72h256l8 -8v-92l-8 -8h-352c-132.667 0 -238 69.333 -316 208
c-24 46 -36 94 -36 144v32c0 129.333 68 234.666 204 315.999c52 24 101.333 36 148 36zM162 392l432.001 0.000976562c77.333 9.33301 116 46.666 116 111.999l4 4c0 62 -34.667 100.667 -104 116h-204c-106.667 0 -185.334 -61.333 -236.001 -184zM547.001 883.001
l-24 -48c-108 52 -162 84 -162 96l42 66z" />
    <glyph glyph-name="eacute" unicode="&#xe9;" 
d="M402 736h212c80.667 0 144.667 -46.667 192 -140c10.667 -22 16 -44.667 16 -68v-32c0 -94 -54.667 -163.333 -164 -208l-72 -8h-408c4 -25.333 25.333 -58.666 64 -99.999c40 -48 125.333 -72 256 -72h256l8 -8v-92l-8 -8h-352c-132.667 0 -238 69.333 -316 208
c-24 46 -36 94 -36 144v32c0 129.333 68 234.666 204 315.999c52 24 101.333 36 148 36zM162 392l432.001 0.000976562c77.333 9.33301 116 46.666 116 111.999l4 4c0 62 -34.667 100.667 -104 116h-204c-106.667 0 -185.334 -61.333 -236.001 -184zM504.001 997.001l42 -66
c0 -12 -54 -44 -162 -96l-24 48z" />
    <glyph glyph-name="ecircumflex" unicode="&#xea;" 
d="M402 736h212c80.667 0 144.667 -46.667 192 -140c10.667 -22 16 -44.667 16 -68v-32c0 -94 -54.667 -163.333 -164 -208l-72 -8h-408c4 -25.333 25.333 -58.666 64 -99.999c40 -48 125.333 -72 256 -72h256l8 -8v-92l-8 -8h-352c-132.667 0 -238 69.333 -316 208
c-24 46 -36 94 -36 144v32c0 129.333 68 234.666 204 315.999c52 24 101.333 36 148 36zM162 392l432.001 0.000976562c77.333 9.33301 116 46.666 116 111.999l4 4c0 62 -34.667 100.667 -104 116h-204c-106.667 0 -185.334 -61.333 -236.001 -184zM470.001 987.001l4 6
l144 -114l-24 -48c-51.333 24.667 -90.333 45 -117 61c-27.333 -16 -68.333 -37.333 -123 -64l-24 48z" />
    <glyph glyph-name="edieresis" unicode="&#xeb;" 
d="M402 736h212c80.667 0 144.667 -46.667 192 -140c10.667 -22 16 -44.667 16 -68v-32c0 -94 -54.667 -163.333 -164 -208l-72 -8h-408c4 -25.333 25.333 -58.666 64 -99.999c40 -48 125.333 -72 256 -72h256l8 -8v-92l-8 -8h-352c-132.667 0 -238 69.333 -316 208
c-24 46 -36 94 -36 144v32c0 129.333 68 234.666 204 315.999c52 24 101.333 36 148 36zM162 392l432.001 0.000976562c77.333 9.33301 116 46.666 116 111.999l4 4c0 62 -34.667 100.667 -104 116h-204c-106.667 0 -185.334 -61.333 -236.001 -184zM406.001 993.001v-136
h-106v136h106zM619.001 993.001v-137h-106v137h106z" />
    <glyph glyph-name="igrave" unicode="&#xec;" horiz-adv-x="286" 
d="M119 736h92l8 -8v-720l-8 -8h-92l-8 8v720zM236 894l-24 -48c-108 52 -162 84 -162 96l42 66z" />
    <glyph glyph-name="iacute" unicode="&#xed;" horiz-adv-x="286" 
d="M79 736h92l8 -8v-720l-8 -8h-92l-8 8v720zM194 1008l42 -66c0 -12 -54 -44 -162 -96l-24 48z" />
    <glyph glyph-name="icircumflex" unicode="&#xee;" horiz-adv-x="388" 
d="M134 736h92l8 -8v-720l-8 -8h-92l-8 8v720zM190 994l4 6l144 -114l-24 -48c-51.333 24.667 -90.333 45 -117 61c-27.333 -16 -68.333 -37.333 -123 -64l-24 48z" />
    <glyph glyph-name="idieresis" unicode="&#xef;" horiz-adv-x="419" 
d="M161 736h92l8 -8v-720l-8 -8h-92l-8 8v720zM156 1001v-136h-106v136h106zM369 1001v-137h-106v137h106z" />
    <glyph glyph-name="eth" unicode="&#xf0;" horiz-adv-x="1084" 
d="M285 1466h217c48 -36 89.667 -70 125 -102l214 102l45 -102l-172 -83c213.333 -245.333 320 -498.666 320 -759.999c0 -168.667 -46.333 -301.834 -139 -399.501s-210.667 -146.5 -354 -146.5c-170 0 -302.667 64.667 -398 194c-62 84.667 -93 200.667 -93 348
c0 174 43 308.333 129 403s193.667 142 323 142c38.667 0 72.667 -4 102 -12s66 -23.667 110 -47c-24 48.667 -45 86.5 -63 113.5s-44.333 60.167 -79 99.5l-275 -127l-44 103l239 109c-64.667 60 -133.667 115 -207 165zM847 529c0 128 -30.165 225.832 -90.498 293.499
s-134.5 101.5 -222.5 101.5c-86.667 0 -158.334 -33.833 -215.001 -101.5s-85 -171.167 -85 -310.5c0 -129.333 29.167 -226.666 87.5 -291.999s131.166 -98 218.499 -98c85.333 0 157.833 34.5 217.5 103.5s89.5 170.167 89.5 303.5z" />
    <glyph glyph-name="ntilde" unicode="&#xf1;" horiz-adv-x="804" 
d="M58 736h92.001c5.33301 0 8 -10.667 8 -32c36.667 21.333 74 32 112 32h276c82 0 146 -46.667 192 -140c10.667 -22 16 -44.667 16 -68v-520l-8 -8h-92l-8 8v476c0 68 -22.667 112 -68 132c-10.667 5.33301 -25.334 8 -44.001 8h-260c-50.667 0 -86.667 -25.333 -108 -76
l-8 -56v-484l-8 -8h-92l-8 8v720zM412.001 852c-38 18.667 -67.668 34.333 -89.001 47c-27.333 -16 -68.333 -37.333 -123 -64l-24 48l140 111l4 6l40 -32c40.667 -20 72.334 -36.667 95.001 -50c26.667 16 65.667 36.333 117 61l24 -48l-144 -114l-4 6z" />
    <glyph glyph-name="ograve" unicode="&#xf2;" 
d="M402 736l68 0.00195312c132.667 0 238 -69.333 316 -208c24 -46 36 -94 36 -144v-32c0 -132.667 -70.667 -239.334 -212 -320.001c-49.333 -21.333 -96 -32 -140 -32h-68c-132.667 0 -238 69.333 -316 208c-24 46 -36 94 -36 144v32c0 129.333 68 234.666 204 315.999
c52 24 101.333 36 148 36zM162 380.002l0.000976562 -23.999c0 -100 54.667 -176 164 -228c26.667 -10.667 53.334 -16 80.001 -16h60c105.333 0 182.666 58.667 231.999 176c8 21.333 12 44 12 68v24c0 100 -54.667 176 -164 228c-26.667 10.667 -53.334 16 -80.001 16h-60
c-100 0 -176 -54.667 -228 -164c-10.667 -26.667 -16 -53.334 -16 -80.001zM464.001 886.003l-24 -48c-108 52 -162 84 -162 96l42 66z" />
    <glyph glyph-name="oacute" unicode="&#xf3;" 
d="M402 736l68 0.00195312c132.667 0 238 -69.333 316 -208c24 -46 36 -94 36 -144v-32c0 -132.667 -70.667 -239.334 -212 -320.001c-49.333 -21.333 -96 -32 -140 -32h-68c-132.667 0 -238 69.333 -316 208c-24 46 -36 94 -36 144v32c0 129.333 68 234.666 204 315.999
c52 24 101.333 36 148 36zM162 380.002l0.000976562 -23.999c0 -100 54.667 -176 164 -228c26.667 -10.667 53.334 -16 80.001 -16h60c105.333 0 182.666 58.667 231.999 176c8 21.333 12 44 12 68v24c0 100 -54.667 176 -164 228c-26.667 10.667 -53.334 16 -80.001 16h-60
c-100 0 -176 -54.667 -228 -164c-10.667 -26.667 -16 -53.334 -16 -80.001zM467.001 995.003l42 -66c0 -12 -54 -44 -162 -96l-24 48z" />
    <glyph glyph-name="ocircumflex" unicode="&#xf4;" 
d="M402 736l68 0.00195312c132.667 0 238 -69.333 316 -208c24 -46 36 -94 36 -144v-32c0 -132.667 -70.667 -239.334 -212 -320.001c-49.333 -21.333 -96 -32 -140 -32h-68c-132.667 0 -238 69.333 -316 208c-24 46 -36 94 -36 144v32c0 129.333 68 234.666 204 315.999
c52 24 101.333 36 148 36zM162 380.002l0.000976562 -23.999c0 -100 54.667 -176 164 -228c26.667 -10.667 53.334 -16 80.001 -16h60c105.333 0 182.666 58.667 231.999 176c8 21.333 12 44 12 68v24c0 100 -54.667 176 -164 228c-26.667 10.667 -53.334 16 -80.001 16h-60
c-100 0 -176 -54.667 -228 -164c-10.667 -26.667 -16 -53.334 -16 -80.001zM425.001 996.003l4 6l144 -114l-24 -48c-51.333 24.667 -90.333 45 -117 61c-27.333 -16 -68.333 -37.333 -123 -64l-24 48z" />
    <glyph glyph-name="otilde" unicode="&#xf5;" 
d="M402 736l68 0.00195312c132.667 0 238 -69.333 316 -208c24 -46 36 -94 36 -144v-32c0 -132.667 -70.667 -239.334 -212 -320.001c-49.333 -21.333 -96 -32 -140 -32h-68c-132.667 0 -238 69.333 -316 208c-24 46 -36 94 -36 144v32c0 129.333 68 234.666 204 315.999
c52 24 101.333 36 148 36zM162 380.002l0.000976562 -23.999c0 -100 54.667 -176 164 -228c26.667 -10.667 53.334 -16 80.001 -16h60c105.333 0 182.666 58.667 231.999 176c8 21.333 12 44 12 68v24c0 100 -54.667 176 -164 228c-26.667 10.667 -53.334 16 -80.001 16h-60
c-100 0 -176 -54.667 -228 -164c-10.667 -26.667 -16 -53.334 -16 -80.001zM438.001 844.003c-38 18.667 -67.668 34.333 -89.001 47c-27.333 -16 -68.333 -37.333 -123 -64l-24 48l140 111l4 6l40 -32c40.667 -20 72.334 -36.667 95.001 -50
c26.667 16 65.667 36.333 117 61l24 -48l-144 -114l-4 6z" />
    <glyph glyph-name="odieresis" unicode="&#xf6;" 
d="M402 736l68 0.00195312c132.667 0 238 -69.333 316 -208c24 -46 36 -94 36 -144v-32c0 -132.667 -70.667 -239.334 -212 -320.001c-49.333 -21.333 -96 -32 -140 -32h-68c-132.667 0 -238 69.333 -316 208c-24 46 -36 94 -36 144v32c0 129.333 68 234.666 204 315.999
c52 24 101.333 36 148 36zM162 380.002l0.000976562 -23.999c0 -100 54.667 -176 164 -228c26.667 -10.667 53.334 -16 80.001 -16h60c105.333 0 182.666 58.667 231.999 176c8 21.333 12 44 12 68v24c0 100 -54.667 176 -164 228c-26.667 10.667 -53.334 16 -80.001 16h-60
c-100 0 -176 -54.667 -228 -164c-10.667 -26.667 -16 -53.334 -16 -80.001zM377.001 986.003v-136h-106v136h106zM590.001 986.003v-137h-106v137h106z" />
    <glyph glyph-name="divide" unicode="&#xf7;" horiz-adv-x="940" 
d="M50 647v140h839l1 -1v-139h-840zM361 408l82.001 84c10 9.33301 19.667 14 29 14c8.66699 0 19 -5.33301 31 -16l80 -86c8 -10.667 12 -20.334 12 -29.001c0 -10 -4.66699 -20.333 -14 -31l-80 -88c-13.333 -13.333 -23 -20 -29 -20
c-10.667 0 -20.334 4.66699 -29.001 14l-88 101c-6.66699 8.66699 -10 17.334 -10 26.001c0 10 5.33301 20.333 16 31zM361.001 1101l82.001 84c10 9.33301 19.667 14 29 14c8.66699 0 19 -5.33301 31 -16l80 -86c8 -10.667 12 -20.334 12 -29.001
c0 -10 -4.66699 -20.333 -14 -31l-80 -88c-13.333 -13.333 -23 -20 -29 -20c-10.667 0 -20.334 4.66699 -29.001 14l-88 101c-6.66699 8.66699 -10 17.334 -10 26.001c0 10 5.33301 20.333 16 31z" />
    <glyph glyph-name="oslash" unicode="&#xf8;" horiz-adv-x="987" 
d="M643 601c-4 2.66699 -8.33203 5.00195 -12.999 7.00195c-26.667 10.667 -53.334 16 -80.001 16h-60c-100 0 -176 -54.667 -228 -164c-10.667 -26.667 -16 -53.334 -16 -80.001v-24c0 -44.667 11 -84.334 33 -119.001zM735.001 534.002l-377 -376.999
c16 -10.667 33.333 -20.334 52 -29.001c26.667 -10.667 53.334 -16 80.001 -16h60c105.333 0 182.666 58.667 231.999 176c8 21.333 12 44 12 68v24c0 60 -19.667 111.333 -59 154zM778.001 736.003h159h-159zM937.001 736.003l-124 -123.997c20 -24.667 39 -52.667 57 -84
c24 -46 36 -94 36 -144v-32c0 -132.667 -70.667 -239.334 -212 -320.001c-49.333 -21.333 -96 -32 -140 -32h-68c-80 0 -150 25 -210 75l-67 -67h-159l151 151c-10.667 15.333 -21 31.666 -31 48.999c-24 46 -36 94 -36 144v32c0 129.333 68 234.666 204 315.999
c52 24 101.333 36 148 36h68c64.667 0 123 -16.333 175 -49l49 49h159z" />
    <glyph glyph-name="ugrave" unicode="&#xf9;" horiz-adv-x="804" 
d="M58 736h91.999l8 -8v-476c0 -68 22.667 -112 68 -132c10.667 -5.33301 25.334 -8 44.001 -8h260c50.667 0 86.667 25.333 108 76l8 56v484l8 8h92l8 -8v-720l-8 -8h-92c-5.33301 0 -8 10.667 -8 32c-36.667 -21.333 -74 -32 -112 -32h-276
c-81.333 0 -145.333 46.667 -192 140c-10.667 22 -16 44.667 -16 68v520zM448.999 879l-24 -48c-108 52 -162 84 -162 96l42 66z" />
    <glyph glyph-name="uacute" unicode="&#xfa;" horiz-adv-x="804" 
d="M58 736h91.999l8 -8v-476c0 -68 22.667 -112 68 -132c10.667 -5.33301 25.334 -8 44.001 -8h260c50.667 0 86.667 25.333 108 76l8 56v484l8 8h92l8 -8v-720l-8 -8h-92c-5.33301 0 -8 10.667 -8 32c-36.667 -21.333 -74 -32 -112 -32h-276
c-81.333 0 -145.333 46.667 -192 140c-10.667 22 -16 44.667 -16 68v520zM443.999 995l42 -66c0 -12 -54 -44 -162 -96l-24 48z" />
    <glyph glyph-name="ucircumflex" unicode="&#xfb;" horiz-adv-x="804" 
d="M58 736h91.999l8 -8v-476c0 -68 22.667 -112 68 -132c10.667 -5.33301 25.334 -8 44.001 -8h260c50.667 0 86.667 25.333 108 76l8 56v484l8 8h92l8 -8v-720l-8 -8h-92c-5.33301 0 -8 10.667 -8 32c-36.667 -21.333 -74 -32 -112 -32h-276
c-81.333 0 -145.333 46.667 -192 140c-10.667 22 -16 44.667 -16 68v520zM401.999 987l4 6l144 -114l-24 -48c-51.333 24.667 -90.333 45 -117 61c-27.333 -16 -68.333 -37.333 -123 -64l-24 48z" />
    <glyph glyph-name="udieresis" unicode="&#xfc;" horiz-adv-x="804" 
d="M58 736h91.999l8 -8v-476c0 -68 22.667 -112 68 -132c10.667 -5.33301 25.334 -8 44.001 -8h260c50.667 0 86.667 25.333 108 76l8 56v484l8 8h92l8 -8v-720l-8 -8h-92c-5.33301 0 -8 10.667 -8 32c-36.667 -21.333 -74 -32 -112 -32h-276
c-81.333 0 -145.333 46.667 -192 140c-10.667 22 -16 44.667 -16 68v520zM437.999 852c-38 18.667 -67.668 34.333 -89.001 47c-27.333 -16 -68.333 -37.333 -123 -64l-24 48l140 111l4 6l40 -32c40.667 -20 72.334 -36.667 95.001 -50c26.667 16 65.667 36.333 117 61
l24 -48l-144 -114l-4 6z" />
    <glyph glyph-name="yacute" unicode="&#xfd;" horiz-adv-x="876" 
d="M170 734c16 -17.333 58.667 -94.667 128 -232l140 -264h4c155.333 306 243.333 471.333 264 496h112l4 -4h4c-408 -776.667 -618.667 -1172.67 -632 -1188h-120l300 576l-324 612l4 4h116zM498 1002l42 -66c0 -12 -54 -44 -162 -96l-24 48z" />
    <glyph glyph-name="thorn" unicode="&#xfe;" horiz-adv-x="868" 
d="M58 1088h91.999l8 -8v-376h4c31.333 21.333 75.333 32 132 32h136c196.667 0 324.667 -98.667 384 -296l4 -64v-24c0 -147.333 -82.667 -259.333 -248 -336c-42 -10.667 -76.667 -16 -104 -16h-220c-27.333 4 -56.666 13.333 -87.999 28v-385l-8 -13h-92l-8 8v1442z
M157.999 480l-0.000976562 -220c0 -65.333 16 -108 48 -128c18.667 -13.333 36 -20 52 -20h208c101.333 0 177.333 57.333 228 172c8 21.333 12 44 12 68v28c0 98 -53.333 172.667 -160 224c-27.333 13.333 -64.666 20 -111.999 20h-156c-80 0 -120 -48 -120 -144z" />
    <glyph glyph-name="ydieresis" unicode="&#xff;" horiz-adv-x="876" 
d="M170 734c16 -17.333 58.667 -94.667 128 -232l140 -264h4c155.333 306 243.333 471.333 264 496h112l4 -4h4c-408 -776.667 -618.667 -1172.67 -632 -1188h-120l300 576l-324 612l4 4h116zM391 992.999v-136h-106v136h106zM604 992.999v-137h-106v137h106z" />
    <glyph glyph-name="dotlessi" unicode="&#x131;" horiz-adv-x="304" 
d="M58 872h188l8 -6v-860l-8 -6h-92l-8 6v787h-88l-8 6v67z" />
    <glyph glyph-name="circumflex" unicode="&#x2c6;" horiz-adv-x="388" 
d="M190 1373l4 6l144 -114l-24 -48c-51.333 24.667 -90.333 45 -117 61c-27.333 -16 -68.333 -37.333 -123 -64l-24 48z" />
    <glyph glyph-name="caron" unicode="&#x2c7;" horiz-adv-x="388" 
d="M50 1331l24 48c54.667 -26.667 95.667 -48 123 -64c26.667 16 65.667 36.333 117 61l24 -48l-144 -114l-4 6z" />
    <glyph glyph-name="uni02C9" unicode="&#x2c9;" horiz-adv-x="616" 
d="M50 1195v125h516v-125h-516z" />
    <glyph glyph-name="breve" unicode="&#x2d8;" horiz-adv-x="684" 
d="M50 1349l50.998 0.00292969c11.333 -48.667 36.333 -84.334 75 -107.001s94.334 -34 167.001 -34s128 11.167 166 33.5s62.667 58.166 74 107.499h51c-13.333 -88.667 -44.666 -155.834 -93.999 -201.501s-115 -68.5 -197 -68.5c-81.333 0 -147 23 -197 69
s-82 113 -96 201z" />
    <glyph glyph-name="dotaccent" unicode="&#x2d9;" horiz-adv-x="315" 
d="M64 1289l69 71.999c4 4 8.33301 7 13 9s9.33398 3 14.001 3c4 0 8.16699 -1 12.5 -3s8.5 -5 12.5 -9l71 -76c3.33301 -2.66699 5.66602 -6 6.99902 -10s2 -8.66699 2 -14c-0.666992 -6 -1.66699 -11 -3 -15s-4 -8 -8 -12l-71 -76c-8 -7.33301 -13.333 -11.833 -16 -13.5
s-5 -2.5 -7 -2.5c-6.66699 0 -12.167 0.833008 -16.5 2.5s-7.83301 4.5 -10.5 8.5l-75 87c-2.66699 2.66699 -4.66699 5.83398 -6 9.50098s-2 8.16699 -2 13.5c0 4 1 8.16699 3 12.5s5.66699 8.83301 11 13.5z" />
    <glyph glyph-name="ring" unicode="&#x2da;" horiz-adv-x="358" 
d="M270 1410.5c25.333 -25 38 -55.5 38 -91.5c0 -35.333 -12.667 -65.666 -38 -90.999s-55.666 -38 -90.999 -38c-36 0 -66.5 12.667 -91.5 38s-37.5 55.666 -37.5 90.999c0 36 12.5 66.5 37.5 91.5s55.5 37.5 91.5 37.5c35.333 0 65.666 -12.5 90.999 -37.5zM179 1381
c-17.333 0 -32 -6 -44 -18s-18 -26.667 -18 -44c0 -16.667 6 -31.167 18 -43.5s26.667 -18.5 44 -18.5s32 6.16699 44 18.5s18 26.833 18 43.5c0 17.333 -6 32 -18 44s-26.667 18 -44 18z" />
    <glyph glyph-name="ogonek" unicode="&#x2db;" horiz-adv-x="468" 
d="M321 0c-47.333 -41.333 -84.168 -81.1699 -110.501 -119.503s-39.5 -75.833 -39.5 -112.5c0 -31.333 9 -56.333 27 -75s42.333 -28 73 -28c26.667 0 49.834 5.16699 69.501 15.5s36.167 26.5 49.5 48.5l28 -16c-24 -42 -54.167 -74.333 -90.5 -97
s-76.166 -34 -119.499 -34c-46.667 0 -84.667 11.833 -114 35.5s-44 53.834 -44 90.501c0 50.667 20.167 102.834 60.5 156.501s94.166 98.834 161.499 135.501h49z" />
    <glyph glyph-name="tilde" unicode="&#x2dc;" horiz-adv-x="520" 
d="M286 1231c-38 18.667 -67.668 34.333 -89.001 47c-27.333 -16 -68.333 -37.333 -123 -64l-24 48l140 111l4 6l40 -32c40.667 -20 72.334 -36.667 95.001 -50c26.667 16 65.667 36.333 117 61l24 -48l-144 -114l-4 6z" />
    <glyph glyph-name="hungarumlaut" unicode="&#x2dd;" horiz-adv-x="652" 
d="M266 1359l63 -99c0 -18 -81 -66 -243 -144l-36 72zM539 1351l63 -99c0 -18 -81 -66 -243 -144l-36 72z" />
    <glyph glyph-name="endash" unicode="&#x2013;" horiz-adv-x="1096" 
d="M50 419v120h996v-120h-996z" />
    <glyph glyph-name="emdash" unicode="&#x2014;" horiz-adv-x="2148" 
d="M50 419v120h2048v-120h-2048z" />
    <glyph glyph-name="quoteleft" unicode="&#x2018;" horiz-adv-x="352" 
d="M183 1016c-29.333 0 -58.832 21.833 -88.499 65.5s-44.5 94.167 -44.5 151.5c0 72.667 23.667 148.167 71 226.5s93.666 117.5 138.999 117.5v-43c-48.667 -28.667 -77.667 -92 -87 -190c0 -79.333 43 -133 129 -161v-42z" />
    <glyph glyph-name="quoteright" unicode="&#x2019;" horiz-adv-x="352" 
d="M169 1577c29.333 0 58.832 -21.833 88.499 -65.5s44.5 -94.167 44.5 -151.5c0 -72.667 -23.667 -148.167 -71 -226.5s-93.666 -117.5 -138.999 -117.5v43c48.667 28.667 77.667 92 87 190c0 79.333 -43 133 -129 161v42z" />
    <glyph glyph-name="quotesinglbase" unicode="&#x201a;" horiz-adv-x="352" 
d="M169 281c29.333 0 58.832 -21.833 88.499 -65.5s44.5 -94.167 44.5 -151.5c0 -72.667 -23.667 -148.167 -71 -226.5s-93.666 -117.5 -138.999 -117.5v43c48.667 28.667 77.667 92 87 190c0 79.333 -43 133 -129 161v42z" />
    <glyph glyph-name="quotedblleft" unicode="&#x201c;" horiz-adv-x="652" 
d="M266 1359l63 -99c0 -18 -81 -66 -243 -144l-36 72zM539 1351l63 -99c0 -18 -81 -66 -243 -144l-36 72z" />
    <glyph glyph-name="quotedblright" unicode="&#x201d;" horiz-adv-x="652" 
d="M602 1188l-36 -72c-162 78 -243 126 -243 144l63 99zM329 1180l-36 -72c-162 78 -243 126 -243 144l63 99z" />
    <glyph glyph-name="quotedblbase" unicode="&#x201e;" horiz-adv-x="705" 
d="M169 281c29.333 0 58.832 -21.833 88.499 -65.5s44.5 -94.167 44.5 -151.5c0 -72.667 -23.667 -148.167 -71 -226.5s-93.666 -117.5 -138.999 -117.5v43c48.667 28.667 77.667 92 87 190c0 79.333 -43 133 -129 161v42zM521.999 281
c29.333 0 58.832 -21.833 88.499 -65.5s44.5 -94.167 44.5 -151.5c0 -72.667 -23.667 -148.167 -71 -226.5s-93.666 -117.5 -138.999 -117.5v43c48.667 28.667 77.667 92 87 190c0 79.333 -43 133 -129 161v42z" />
    <glyph glyph-name="dagger" unicode="&#x2020;" horiz-adv-x="973" 
d="M465 1022c-5.33301 64.667 -23.332 123.999 -53.999 177.999c-38 67.333 -57 110.333 -57 129c0 32.667 12 58.834 36 78.501s56 29.5 96 29.5c38 0 69.5 -9.16699 94.5 -27.5s37.5 -42.166 37.5 -71.499c0 -21.333 -18.333 -67 -55 -137
c-30.667 -56.667 -49 -116.334 -55 -179.001c64 5.33301 123 23.333 177 54c67.333 38 110.333 57 129 57c32.667 0 59 -12 79 -36s30 -56 30 -96c0 -38 -9.16699 -69.5 -27.5 -94.5s-42.5 -37.5 -72.5 -37.5c-21.333 0 -66.666 18.333 -135.999 55
c-56.667 30.667 -116.334 49.667 -179.001 57c5.33301 -117.333 42 -209.666 110 -276.999c-70.667 -306.667 -108 -631.334 -112 -974.001h-38c-4 342.667 -42 667.334 -114 974.001c68 67.333 105 159.666 111 276.999c-64 -6.66699 -123.333 -25 -178 -55
c-67.333 -38 -110.333 -57 -129 -57c-32.667 0 -58.834 12 -78.501 36s-29.5 56 -29.5 96c0 38 9.16699 69.5 27.5 94.5s42.166 37.5 71.499 37.5c21.333 0 67 -18.667 137 -56c56.667 -30.667 116.334 -49 179.001 -55z" />
    <glyph glyph-name="daggerdbl" unicode="&#x2021;" horiz-adv-x="973" 
d="M508 186c62.667 7.33301 122.334 26.3311 179.001 56.998c69.333 36.667 114.666 55 135.999 55c30 0 54.167 -12.5 72.5 -37.5s27.5 -56.5 27.5 -94.5c0 -40 -10 -72 -30 -96s-46.333 -36 -79 -36c-18.667 0 -61.667 19 -129 57c-54 30.667 -113 48.667 -177 54
c6 -62.667 24.333 -122.334 55 -179.001c36.667 -70 55 -115.667 55 -137c0 -29.333 -12.5 -53.166 -37.5 -71.499s-56.5 -27.5 -94.5 -27.5c-40 0 -72 9.83301 -96 29.5s-36 45.834 -36 78.501c0 18.667 19 61.667 57 129c30.667 54 48.667 113.333 54 178
c-62.667 -6 -122.334 -24.333 -179.001 -55c-70 -37.333 -115.667 -56 -137 -56c-29.333 0 -53.166 12.5 -71.499 37.5s-27.5 56.5 -27.5 94.5c0 40 9.83301 72 29.5 96s45.834 36 78.501 36c18.667 0 61.667 -19 129 -57c54.667 -30 114 -48.333 178 -55
c-6 150.667 -43 283.334 -111 398.001c68 114 105 246.333 111 397c-64 -6.66699 -123.333 -25 -178 -55c-67.333 -38 -110.333 -57 -129 -57c-32.667 0 -58.834 12 -78.501 36s-29.5 56 -29.5 96c0 38 9.16699 69.5 27.5 94.5s42.166 37.5 71.499 37.5
c21.333 0 67 -18.667 137 -56c56.667 -30.667 116.334 -49 179.001 -55c-5.33301 64.667 -23.333 124 -54 178c-38 67.333 -57 110.333 -57 129c0 32.667 12 58.834 36 78.501s56 29.5 96 29.5c38 0 69.5 -9.16699 94.5 -27.5s37.5 -42.166 37.5 -71.499
c0 -21.333 -18.333 -67 -55 -137c-30.667 -56.667 -49 -116.334 -55 -179.001c64 5.33301 123 23.333 177 54c67.333 38 110.333 57 129 57c32.667 0 59 -12 79 -36s30 -56 30 -96c0 -38 -9.16699 -69.5 -27.5 -94.5s-42.5 -37.5 -72.5 -37.5
c-21.333 0 -66.666 18.333 -135.999 55c-56.667 30.667 -116.334 49.667 -179.001 57c5.33301 -150.667 42 -283 110 -397c-68 -114.667 -104.667 -247.334 -110 -398.001z" />
    <glyph glyph-name="bullet" unicode="&#x2022;" horiz-adv-x="692" 
d="M50 718c0 82 28.999 151.666 86.999 208.999s128 86 210 86c81.333 0 150.833 -28.833 208.5 -86.5s86.5 -127.167 86.5 -208.5s-29.167 -151.166 -87.5 -209.499s-128.166 -87.5 -209.499 -87.5c-82 0 -151.667 29 -209 87s-86 128 -86 210z" />
    <glyph glyph-name="ellipsis" unicode="&#x2026;" horiz-adv-x="1716" 
d="M66 167l82.001 84c10 9.33301 19.667 14 29 14c8.66699 0 19 -5.33301 31 -16l80 -86c8 -10.667 12 -20.334 12 -29.001c0 -10 -4.66699 -20.333 -14 -31l-80 -88c-13.333 -13.333 -23 -20 -29 -20c-10.667 0 -20.334 4.66699 -29.001 14l-88 101
c-6.66699 8.66699 -10 17.334 -10 26.001c0 10 5.33301 20.333 16 31zM749.001 167l82.001 84c10 9.33301 19.667 14 29 14c8.66699 0 19 -5.33301 31 -16l80 -86c8 -10.667 12 -20.334 12 -29.001c0 -10 -4.66699 -20.333 -14 -31l-80 -88c-13.333 -13.333 -23 -20 -29 -20
c-10.667 0 -20.334 4.66699 -29.001 14l-88 101c-6.66699 8.66699 -10 17.334 -10 26.001c0 10 5.33301 20.333 16 31zM1432 167l82.001 84c10 9.33301 19.667 14 29 14c8.66699 0 19 -5.33301 31 -16l80 -86c8 -10.667 12 -20.334 12 -29.001
c0 -10 -4.66699 -20.333 -14 -31l-80 -88c-13.333 -13.333 -23 -20 -29 -20c-10.667 0 -20.334 4.66699 -29.001 14l-88 101c-6.66699 8.66699 -10 17.334 -10 26.001c0 10 5.33301 20.333 16 31z" />
    <glyph glyph-name="guilsinglleft" unicode="&#x2039;" horiz-adv-x="456" 
d="M50 479l342 303h14v-37l-205 -266l205 -266v-37h-14z" />
    <glyph glyph-name="guilsinglright" unicode="&#x203a;" horiz-adv-x="456" 
d="M64 176h-14v37l205 266l-205 266v37h14l342 -303z" />
    <glyph glyph-name="fraction" unicode="&#x2044;" horiz-adv-x="1124" 
d="M50 -29l940 1461h84l-938 -1461h-86z" />
    <glyph glyph-name="fraction" unicode="&#x2215;" horiz-adv-x="1124" 
d="M50 -29l940 1461h84l-938 -1461h-86z" />
    <glyph glyph-name="franc" unicode="&#x20a3;" horiz-adv-x="1118" 
d="M249 357h-194.001v60h194v732c0 156.667 -34.333 235 -103 235h-96v50h915l103 -231h-49c-39.333 121.333 -102.666 182 -189.999 182l-316 -1c-68 0 -102 -78.333 -102 -235v-352h361c66.667 0 100 21 100 63v58h50v-342h-50v60c0 41.333 -33.333 62 -100 62h-361v-281
h194v-60h-194v-72c0 -156.667 34 -235 102 -235h97v-50h-560v50h96c68.667 0 103 78.333 103 235v72z" />
    <glyph glyph-name="lira" unicode="&#x20a4;" horiz-adv-x="960" 
d="M722 1347c-48 20.667 -101.333 30.999 -160 30.999h-2c-66.667 0 -130 -33.667 -190 -101c-56 -62 -84 -142.333 -84 -241c0 -10 0.333008 -20 1 -30c0 -70.667 11 -141.667 33 -213h380v-60h-360c8 -20 16.667 -40 26 -60h352v-60h-321c23.333 -42 35 -88 35 -138
c0 -107.333 -54 -232.333 -162 -375h402c86.667 0 149.667 44 189 132l49 -1l-103 -231h-719l1 50c124.667 158.667 187 298 187 418c0 51.333 -11.333 99 -34 143l-2 2h-172v60h143l-26 60h-135v60h113c-24 71.333 -36 135.666 -36 192.999
c0 150.667 41.167 266.334 123.5 347.001s185.833 121 310.5 121c50 0 111.833 -4.66699 185.5 -14s110.5 -20.666 110.5 -33.999v-161h-58c-3.33301 40.667 -29 74.667 -77 102z" />
    <glyph glyph-name="peseta" unicode="&#x20a7;" horiz-adv-x="2019" 
d="M411 1384v-661.999c2 -6 4.33301 -11.667 7 -17c27.333 -68 63.333 -119 108 -153c38 -29.333 76.667 -44 116 -44c6.66699 0 13 0.333008 19 1c45.333 5.33301 87.666 30.333 126.999 75s68.333 103.667 87 177c14.667 58 22 117.667 22 179
c0 16 -0.333008 31.667 -1 47c-4.66699 77.333 -21.167 150.166 -49.5 218.499s-64.5 116.5 -108.5 144.5c-37.333 23.333 -74.666 35 -111.999 35c-6.66699 0 -13.667 -0.333008 -21 -1h-194zM1498 908.001h-178.999v-685c0 -54 11.333 -93.667 34 -119
c18.667 -20.667 45.667 -33 81 -37l-71 192l49 1c36.667 -86.667 74.667 -144.667 114 -174c38 -29.333 80.333 -44 127 -44h7c61.333 0 111.666 17.333 150.999 52c39.333 35.333 59 80.666 59 135.999c0 68 -86.333 143.333 -259 226c-67.333 34.667 -115.333 72 -144 112
s-43 88.333 -43 145c0 80.667 24.333 145.334 73 194.001zM1041 910.001c-4.66699 -67.333 -20.6621 -131.999 -47.9951 -193.999c-33.333 -76 -80.333 -135.167 -141 -177.5s-124 -63.5 -190 -63.5c-66.667 0 -130.334 21.333 -191.001 64c-22 14.667 -42 31.667 -60 51
v-305c0 -156.667 34 -235 102 -235h97v-50h-560v50h96c68.667 0 103 78.333 103 235v864c0 156.667 -34.333 235 -103 235h-96v50h618c61.333 -1.33301 121.666 -22 180.999 -62c60.667 -41.333 108.334 -100.333 143.001 -177c33.333 -75.333 50.333 -154.333 51 -237h10
c144 0 216 118.333 216 355h50v-355h259c28 12.667 64.667 19.334 110 20.001h2c36 0 80.5 -4.5 133.5 -13.5s79.5 -20.167 79.5 -33.5v-159h-42c-2.66699 44 -24.5 80 -65.5 108s-85.5 42 -133.5 42c-42.667 0 -76.834 -12.167 -102.501 -36.5s-38.5 -56.5 -38.5 -96.5
c0 -72 78.333 -145.333 235 -220c81.333 -36.667 137.166 -75.834 167.499 -117.501s45.5 -92.834 45.5 -153.501c0 -93.333 -27.667 -170.333 -83 -231c-68 -56 -144 -84.667 -228 -86c-38.667 0 -73.667 3.66699 -105 11c-18.667 4 -37.334 6 -56.001 6
c-12 0 -24 -1 -36 -3c-18.667 -3.33301 -38.334 -5 -59.001 -5c-82.667 0 -140.5 19 -173.5 57s-52.167 96.667 -57.5 176h-1v687h-129z" />
    <glyph glyph-name="Euro" unicode="&#x20ac;" horiz-adv-x="1211" 
d="M234 372c-41.333 90 -66.6641 183.667 -75.9971 281h-108l17 60h87v29c0 10.667 0.333008 21 1 31h-71l17 60h58c9.33301 96.667 34.666 190.334 75.999 281.001c54 118.667 129.333 210 226 274s196 96 298 96c28.667 0 57.667 -2.66699 87 -8
c26.667 -6.66699 54 -16.334 82 -29.001c5.33301 -4 10.666 -6 15.999 -6c13.333 0 24.666 15 33.999 45h41l84 -281l-40 -1c-32.667 89.333 -78.667 148.666 -138 177.999c-28.667 14.667 -55.667 25.334 -81 32.001v3c-33.333 10.667 -67 16 -101 16
c-11.333 0 -22.666 -0.666992 -33.999 -2c-80 -8 -155.333 -45.833 -226 -113.5s-123 -158.834 -157 -273.501c-21.333 -69.333 -34.333 -139.666 -39 -210.999h706l-17 -60h-692c0 -20 0.666992 -40 2 -60h674l-17 -60h-652c11.333 -105.333 39 -204.666 83 -297.999
c49.333 -104.667 113.666 -183.334 192.999 -236.001c68 -45.333 140 -68.333 216 -69c124 2 209.333 32.333 256 91c49.333 60.667 74 122.334 74 185.001h48v-143c0 -46.667 -37 -89 -111 -127c-70 -36 -159 -54.667 -267 -56c-120.667 0 -229.167 32.667 -325.5 98
s-170.833 156.666 -223.5 273.999z" />
    <glyph glyph-name="afii61352" unicode="&#x2116;" horiz-adv-x="1728" 
d="M58 1192h100l932 -1064v1056l8 8h92l8 -8v-1176l-8 -8h-136l-896 1024v-1016l-8 -8h-92l-8 8v1176zM1640 955.5c25.333 -25 38 -55.5 38 -91.5c0 -35.333 -12.667 -65.666 -38 -90.999s-55.666 -38 -90.999 -38c-36 0 -66.5 12.667 -91.5 38s-37.5 55.666 -37.5 90.999
c0 36 12.5 66.5 37.5 91.5s55.5 37.5 91.5 37.5c35.333 0 65.666 -12.5 90.999 -37.5zM1549 926c-17.333 0 -32 -6 -44 -18s-18 -26.667 -18 -44c0 -16.667 6 -31.167 18 -43.5s26.667 -18.5 44 -18.5c16.667 0 31.167 6.16699 43.5 18.5s18.5 26.833 18.5 43.5
c0 17.333 -6.16699 32 -18.5 44s-26.833 18 -43.5 18zM1662 644v-98h-227v98h227z" />
    <glyph glyph-name="trademark" unicode="&#x2122;" horiz-adv-x="1522" 
d="M54 1187h694l4 -4v-42l-4 -3h-321v-492l-4 -4h-44l-4 4v492h-321l-4 3v42zM779 1187h45l300 -298l298 298h46l4 -4v-537l-4 -4h-42l-4 4v470l-298 -298h-2l-298 298v-470l-3 -4h-42l-4 4v537z" />
    <glyph glyph-name="partialdiff" unicode="&#x2202;" horiz-adv-x="960" 
d="M205 537c0 -27.333 1.66504 -53.668 4.99805 -79.001c9.33301 -81.333 29.833 -158 61.5 -230s71.167 -127 118.5 -165c42.667 -35.333 85.334 -53 128.001 -53c4 0 8.33301 0.333008 13 1c46.667 3.33301 89.167 26.833 127.5 70.5s65.166 103.5 80.499 179.5
c10.667 48.667 16 98.334 16 149.001c0 28 -1.66699 56.333 -5 85c-9.33301 81.333 -30.166 158.5 -62.499 231.5s-72.166 128.167 -119.499 165.5c-43.333 33.333 -86 50 -128 50h-11c-45.333 -3.33301 -87.333 -26.5 -126 -69.5s-66 -102.5 -82 -178.5
c-10.667 -56 -16 -108.333 -16 -157zM909.998 476.998c0 -88 -18.835 -171.669 -56.502 -251.002s-90.667 -141 -159 -185s-139.833 -66 -214.5 -66s-146.167 22 -214.5 66s-121.333 105.667 -159 185s-56.5 163 -56.5 251c0 87.333 19.333 171 58 251
s92.334 141.667 161.001 185s139 65 211 65c72.667 0 143.334 -21.667 212.001 -65c19.333 -12 37.333 -25.667 54 -41c-56 156.667 -133.833 282.334 -233.5 377.001s-208.5 146.334 -326.5 155.001v55c204 0 375.667 -95 515 -285s209 -422.333 209 -697z" />
    <glyph glyph-name="Delta" unicode="&#x2206;" horiz-adv-x="1167" 
d="M558 1195l-406 -1072h801zM591 1434l526 -1434h-1067z" />
    <glyph glyph-name="product" unicode="&#x220f;" horiz-adv-x="1519" 
d="M513 1384c-68 0 -102 -78.333 -102 -235v-1281c0 -156.667 34 -235 102 -235h97v-51h-560v51h96c68.667 0 103 78.333 103 235v1281c0 156.667 -34.333 235 -103 235h-96v50h1419v-50h-97c-68 0 -102 -78.333 -102 -235v-1281c0 -156.667 34 -235 102 -235h97v-50h-560
v50h96c68.667 0 103 78.333 103 235v1281c0 156.667 -34.333 235 -103 235h-492z" />
    <glyph glyph-name="summation" unicode="&#x2211;" horiz-adv-x="1124" 
d="M989 548l-788 -914h635c86.667 0 149.667 60.667 189 182h49l-103 -232h-921v50c41.333 0 76.666 17.667 105.999 53l663 781l-663 859c-29.333 38 -64.666 57 -105.999 57v50h921l103 -232h-49c-39.333 121.333 -102.333 182 -189 182h-485z" />
    <glyph glyph-name="minus" unicode="&#x2212;" horiz-adv-x="940" 
d="M50 647v140h839l1 -1v-139h-840z" />
    <glyph glyph-name="radical" unicode="&#x221a;" horiz-adv-x="1137" 
d="M214 0l-164 359l74 35l85 -185l728 1470h150v-60h-72z" />
    <glyph glyph-name="infinity" unicode="&#x221e;" horiz-adv-x="985" 
d="M423 755c-10 68.667 -34.666 113 -73.999 133c-30.667 14.667 -58.667 22 -84 22c-8 0 -15.667 -0.666992 -23 -2c-32.667 -6.66699 -63.5 -21.5 -92.5 -44.5s-50.833 -51.167 -65.5 -84.5c-13.333 -30.667 -20 -60.667 -20 -90v-8c1.33301 -32 10.5 -61.667 27.5 -89
s40.833 -46.666 71.5 -57.999c19.333 -7.33301 39.666 -11 60.999 -11c10.667 0 21.667 1 33 3c31.333 6.66699 61.5 21.167 90.5 43.5s54.167 84.166 75.5 185.499zM450.001 687c8 -64 39.333 -115 94 -153c46 -32 87 -48 123 -48c7.33301 0 14.333 0.666992 21 2
c41.333 8 80.5 25.333 117.5 52s65.167 60.334 84.5 101.001c17.333 36 26 72 26 108v11c-1.33301 40 -13.166 76.167 -35.499 108.5s-52.833 55.166 -91.5 68.499c-24.667 8.66699 -50 13 -76 13c-14.667 0 -29.334 -1.33301 -44.001 -4c-44.667 -6 -87 -26.667 -127 -62
s-70.667 -101 -92 -197zM434.001 827c6 23.333 13 46.335 21 69.002c22.667 58.667 54.334 104.334 95.001 137.001s83.334 49 128.001 49s87.334 -16 128.001 -48s72.334 -77 95.001 -135s34 -118.667 34 -182s-11.333 -124 -34 -182s-54.334 -103 -95.001 -135
s-83.334 -48 -128.001 -48s-87.334 16.333 -128.001 49s-72.334 78 -95.001 136c-8 23.333 -15 46.666 -21 69.999c-3.33301 -14 -7.33301 -27.667 -12 -41c-18 -48.667 -42.667 -86.334 -74 -113.001s-64.333 -40 -99 -40s-68 13.667 -100 41s-56.5 65.166 -73.5 113.499
s-25.5 98.166 -25.5 149.499c0 50.667 8.5 100.334 25.5 149.001s41.5 86.667 73.5 114s65.333 41 100 41s67.667 -13.333 99 -40s56 -64 74 -112c4.66699 -14 8.66699 -28 12 -42z" />
    <glyph glyph-name="integral" unicode="&#x222b;" horiz-adv-x="897" 
d="M110 -281c-40 0 -59.9971 9.66699 -59.9971 29v159h36c0.666992 -28.667 12.167 -50.167 34.5 -64.5s43.5 -21.5 63.5 -21.5h1c54.667 0 93 54 115 162c21.333 108 34.666 213.333 39.999 316l70 734l8 62c18 158.667 63 301.834 135 429.501s150 191.5 234 191.5
c40 0 60 -9.66699 60 -29v-159h-36c-0.666992 28.667 -12.334 50.167 -35.001 64.5s-43.667 21.5 -63 21.5c-47.333 0 -86 -51.833 -116 -155.5s-46.333 -224.834 -49 -363.501l-73 -767c-13.333 -154 -56.833 -294 -130.5 -420s-151.834 -189 -234.501 -189z" />
    <glyph glyph-name="approxequal" unicode="&#x2248;" horiz-adv-x="929" 
d="M879 1053l-0.00195312 -156c-42 -48 -82.667 -80.5 -122 -97.5s-78 -25.5 -116 -25.5c-40 0 -99.167 16.167 -177.5 48.5s-137.166 48.5 -176.499 48.5c-34 0 -69.833 -9.33301 -107.5 -28s-80.834 -56 -129.501 -112v156c42.667 48.667 83.667 81.667 123 99
s77.333 26 114 26c42.667 0 103.167 -16.5 181.5 -49.5s135.833 -49.5 172.5 -49.5c34.667 0 70.834 9.33301 108.501 28s80.834 56 129.501 112zM878.998 705l-0.00195312 -156c-42 -48 -82.667 -80.5 -122 -97.5s-78 -25.5 -116 -25.5c-40 0 -99.167 16.167 -177.5 48.5
s-137.166 48.5 -176.499 48.5c-34 0 -69.833 -9.33301 -107.5 -28s-80.834 -56 -129.501 -112v156c42.667 48.667 83.667 81.667 123 99s77.333 26 114 26c42.667 0 103.167 -16.5 181.5 -49.5s135.833 -49.5 172.5 -49.5c34.667 0 70.834 9.33301 108.501 28
s80.834 56 129.501 112z" />
    <glyph glyph-name="lessequal" unicode="&#x2264;" horiz-adv-x="940" 
d="M890 1074l-625 -359l625 -355v-167l-840 481v83l840 484v-167zM50 1v140h839l1 -1v-139h-840z" />
    <glyph glyph-name="greaterequal" unicode="&#x2265;" horiz-adv-x="940" 
d="M50 1241l840 -484v-83l-840 -481v167l625 355l-625 359v167zM50 2v140h839l1 -1v-139h-840z" />
    <glyph glyph-name="logo" unicode="&#xf001;" horiz-adv-x="1441" 
d="M1372 1192l0.00292969 -4l-128 -96h-28c-74 0 -155.333 -14.667 -244 -44v-4h216v-8l-128 -64h-212c-26.667 0 -61.334 -34.667 -104.001 -104c-18.667 -44 -28 -96 -28 -156v-64l-8 -8h-16c-151.333 0 -267.333 -45.333 -348 -136l8 -20c-6.66699 -16 -16 -24 -28 -24
c-16.667 5.33301 -26 12 -28 20v16c51.333 115.333 116.666 223.333 195.999 324c229.333 248 522.666 372 879.999 372zM316.003 508l0.00292969 -3.99902h4c78.667 176 154.667 277.333 228 304l24 4h16c40 -10.667 60 -29.334 60 -56.001v-16
c0 -25.333 -18.667 -42.666 -56 -51.999h-20c-14 0 -22 4 -24 12v12l8 8h4c0 -13.333 2.66699 -20 8 -20h20c32 6.66699 48 22.667 48 48c0 29.333 -20 46.666 -60 51.999c-72 0 -152 -94.667 -240 -284c107.333 96 220.666 144 339.999 144h16v16c0 154 48 256.667 144 308
h216c12 0 42.667 17.333 92 52h-220v8c101.333 40 204 60 308 60l100 72h-16c-304.667 0 -575.334 -120 -812.001 -360c-90.667 -112 -153.334 -214.667 -188.001 -308zM308.006 692.001h8v-4l12 -112l-16 -40h-8l4 88v68zM188.006 632.001l112.001 -119.999l-12 -32
c0 -12.667 12 -20.667 36 -24c21.333 0 32 9.33301 32 28v8l-4 20l140 64h4l-124 -100h88v-8h-4l-92 -12l64 -44h-4l-84 28l8 -28l-28 24l-8 -24h-8l-4 32l-56 -32h-8l28 32h-4c-90.667 -46.667 -136 -94.667 -136 -144v-12c0 -92.667 136 -168.667 408 -228
c118 -18.667 234 -28 348 -28c166.667 0 326.667 20 480 60c0 -16.667 -106.667 -43.334 -320 -80.001c-74 -8 -142 -12 -204 -12h-84c-258.667 0 -469.334 48 -632.001 144c-53.333 42 -80 76.667 -80 104v32c0 46 53.333 95.333 160 148l64 24v4l-132 36v8l136 -8l-80 132
v8zM476.007 480.002h8v-8h-8v8zM1324.01 352.002c14 0 24.6689 -6.66602 32.002 -19.999v-16l-12 -12h-12l-16 12h-20l-84 -8v-8c0 -4 37.333 -17.333 112 -40c37.333 -19.333 56 -40.666 56 -63.999l-20 -16h-48l-100 -4c0 13.333 -66.667 26.666 -200 39.999v-20l-16 -16
h-8c-10 0 -15.333 10.667 -16 32l-208 -24c-16 36.667 -24 67.334 -24 92.001v20l-16 16l-140 -8v-20h52c58.667 0 88 -5.33301 88 -16c-4 -10.667 -13.333 -16 -28 -16h-20l-88 -4l4 -48v-8l-12 -12c-18.667 18 -28 39.333 -28 64h-4l-12 -12l20 -24v-8l-12 -12h-8l-48 44
h-84l-36 -44h-4c-10.667 5.33301 -16 12 -16 20l8 24c-5.33301 0 -8 8 -8 24h-28l-80 -4l4 -60l-12 -8c-10.667 4.66699 -22.667 28.667 -36 72l-4 4v4l4 28l-24 28v4c0 13.333 30.667 20 92 20h116l16 -16c0 -8.66699 -53.333 -15.334 -160 -20.001v-8h-4l4 -12h52
c58.667 0 88 -6.66699 88 -20h4c24 25.333 36 48 36 68l36 8c21.333 -50.667 50.666 -76 87.999 -76l4 20v12c-11.333 0 -19.333 5.33301 -24 16v4c0 13.333 34.667 20 104 20h96l20 -4l8 8h12l12 -8h76c30.667 0 48 -6.66699 52 -20c-3.33301 -10.667 -15.333 -16 -36 -16
h-88v-16h92c24 -5.33301 36 -12 36 -20l-12 -12h-24l-88 -4v-24c47.333 8 108.666 12 183.999 12v4l-4 80c4 13.333 13.333 20 28 20h52c59.333 0 95.333 -18.667 108 -56c0 -7.33301 -16 -22 -48 -44l128 -32l88 4v4l-132 48c-10.667 11.333 -16 24.666 -16 39.999v4
c14.667 26.667 66.667 40 156 40zM1000.01 308.003l4 -48h16c24 0 53.333 9.33301 88 28v8c-31.333 8 -67.333 12 -108 12zM432.009 280.003v-4h20l-12 12z" />
    <glyph glyph-name="logo" unicode="&#xfb01;" horiz-adv-x="1441" 
d="M1372 1192l0.00292969 -4l-128 -96h-28c-74 0 -155.333 -14.667 -244 -44v-4h216v-8l-128 -64h-212c-26.667 0 -61.334 -34.667 -104.001 -104c-18.667 -44 -28 -96 -28 -156v-64l-8 -8h-16c-151.333 0 -267.333 -45.333 -348 -136l8 -20c-6.66699 -16 -16 -24 -28 -24
c-16.667 5.33301 -26 12 -28 20v16c51.333 115.333 116.666 223.333 195.999 324c229.333 248 522.666 372 879.999 372zM316.003 508l0.00292969 -3.99902h4c78.667 176 154.667 277.333 228 304l24 4h16c40 -10.667 60 -29.334 60 -56.001v-16
c0 -25.333 -18.667 -42.666 -56 -51.999h-20c-14 0 -22 4 -24 12v12l8 8h4c0 -13.333 2.66699 -20 8 -20h20c32 6.66699 48 22.667 48 48c0 29.333 -20 46.666 -60 51.999c-72 0 -152 -94.667 -240 -284c107.333 96 220.666 144 339.999 144h16v16c0 154 48 256.667 144 308
h216c12 0 42.667 17.333 92 52h-220v8c101.333 40 204 60 308 60l100 72h-16c-304.667 0 -575.334 -120 -812.001 -360c-90.667 -112 -153.334 -214.667 -188.001 -308zM308.006 692.001h8v-4l12 -112l-16 -40h-8l4 88v68zM188.006 632.001l112.001 -119.999l-12 -32
c0 -12.667 12 -20.667 36 -24c21.333 0 32 9.33301 32 28v8l-4 20l140 64h4l-124 -100h88v-8h-4l-92 -12l64 -44h-4l-84 28l8 -28l-28 24l-8 -24h-8l-4 32l-56 -32h-8l28 32h-4c-90.667 -46.667 -136 -94.667 -136 -144v-12c0 -92.667 136 -168.667 408 -228
c118 -18.667 234 -28 348 -28c166.667 0 326.667 20 480 60c0 -16.667 -106.667 -43.334 -320 -80.001c-74 -8 -142 -12 -204 -12h-84c-258.667 0 -469.334 48 -632.001 144c-53.333 42 -80 76.667 -80 104v32c0 46 53.333 95.333 160 148l64 24v4l-132 36v8l136 -8l-80 132
v8zM476.007 480.002h8v-8h-8v8zM1324.01 352.002c14 0 24.6689 -6.66602 32.002 -19.999v-16l-12 -12h-12l-16 12h-20l-84 -8v-8c0 -4 37.333 -17.333 112 -40c37.333 -19.333 56 -40.666 56 -63.999l-20 -16h-48l-100 -4c0 13.333 -66.667 26.666 -200 39.999v-20l-16 -16
h-8c-10 0 -15.333 10.667 -16 32l-208 -24c-16 36.667 -24 67.334 -24 92.001v20l-16 16l-140 -8v-20h52c58.667 0 88 -5.33301 88 -16c-4 -10.667 -13.333 -16 -28 -16h-20l-88 -4l4 -48v-8l-12 -12c-18.667 18 -28 39.333 -28 64h-4l-12 -12l20 -24v-8l-12 -12h-8l-48 44
h-84l-36 -44h-4c-10.667 5.33301 -16 12 -16 20l8 24c-5.33301 0 -8 8 -8 24h-28l-80 -4l4 -60l-12 -8c-10.667 4.66699 -22.667 28.667 -36 72l-4 4v4l4 28l-24 28v4c0 13.333 30.667 20 92 20h116l16 -16c0 -8.66699 -53.333 -15.334 -160 -20.001v-8h-4l4 -12h52
c58.667 0 88 -6.66699 88 -20h4c24 25.333 36 48 36 68l36 8c21.333 -50.667 50.666 -76 87.999 -76l4 20v12c-11.333 0 -19.333 5.33301 -24 16v4c0 13.333 34.667 20 104 20h96l20 -4l8 8h12l12 -8h76c30.667 0 48 -6.66699 52 -20c-3.33301 -10.667 -15.333 -16 -36 -16
h-88v-16h92c24 -5.33301 36 -12 36 -20l-12 -12h-24l-88 -4v-24c47.333 8 108.666 12 183.999 12v4l-4 80c4 13.333 13.333 20 28 20h52c59.333 0 95.333 -18.667 108 -56c0 -7.33301 -16 -22 -48 -44l128 -32l88 4v4l-132 48c-10.667 11.333 -16 24.666 -16 39.999v4
c14.667 26.667 66.667 40 156 40zM1000.01 308.003l4 -48h16c24 0 53.333 9.33301 88 28v8c-31.333 8 -67.333 12 -108 12zM432.009 280.003v-4h20l-12 12z" />
    <glyph glyph-name="pena" unicode="&#xf002;" horiz-adv-x="1994" 
d="M1815 1303l0.000976562 -6.99805l-200 -148c-136.667 0 -278.667 -23.667 -426 -71v-6h342v-13l-213 -103h-329c-137.333 -52.667 -206 -207.667 -206 -465v-38c0 -14.667 -69 -23.334 -207 -26.001c-116.667 -18 -241.334 -82.667 -374.001 -194l-6 -6v-7l13 -12v-26
l-26 -26h-13c-30 0 -45 15 -45 45v7c90 221.333 229.667 429.666 419 624.999c347.333 314 771 471 1271 471zM157.001 226.002h6.99805c148.667 322.667 284 484 406 484c73.333 -14 110 -48.667 110 -104c-10 -64 -40.333 -96 -91 -96h-25
c-23.333 0 -38.666 8.33301 -45.999 25v7l20 19c5.33301 -21.333 11.666 -32 18.999 -32h26c51.333 11.333 77 37 77 77c-12 52 -37.667 78 -77 78h-26c-110 0 -232.667 -148.333 -368 -445c159.333 150.667 338 226 536 226h26v83c0 185.333 70.667 327.333 212 426h361
l136 77v7h-342v13c148.667 60 286.334 90 413.001 90h58l167 110v6h-32c-495.333 0 -931.666 -202 -1309 -606c-112.667 -154 -198.667 -298 -258 -432v-13z" />
    <glyph glyph-name="pena" unicode="&#xfb02;" horiz-adv-x="1994" 
d="M1815 1303l0.000976562 -6.99805l-200 -148c-136.667 0 -278.667 -23.667 -426 -71v-6h342v-13l-213 -103h-329c-137.333 -52.667 -206 -207.667 -206 -465v-38c0 -14.667 -69 -23.334 -207 -26.001c-116.667 -18 -241.334 -82.667 -374.001 -194l-6 -6v-7l13 -12v-26
l-26 -26h-13c-30 0 -45 15 -45 45v7c90 221.333 229.667 429.666 419 624.999c347.333 314 771 471 1271 471zM157.001 226.002h6.99805c148.667 322.667 284 484 406 484c73.333 -14 110 -48.667 110 -104c-10 -64 -40.333 -96 -91 -96h-25
c-23.333 0 -38.666 8.33301 -45.999 25v7l20 19c5.33301 -21.333 11.666 -32 18.999 -32h26c51.333 11.333 77 37 77 77c-12 52 -37.667 78 -77 78h-26c-110 0 -232.667 -148.333 -368 -445c159.333 150.667 338 226 536 226h26v83c0 185.333 70.667 327.333 212 426h361
l136 77v7h-342v13c148.667 60 286.334 90 413.001 90h58l167 110v6h-32c-495.333 0 -931.666 -202 -1309 -606c-112.667 -154 -198.667 -298 -258 -432v-13z" />
    <glyph glyph-name=".null" horiz-adv-x="100" 
 />
    <glyph glyph-name="nonmarkingreturn" horiz-adv-x="100" 
 />
    </font>
</defs>
</svg>
